<?xml version="1.0" encoding="utf-8"?>
<!-- Generator: Adobe Illustrator 22.0.1, SVG Export Plug-In . SVG Version: 6.00 Build 0)  -->
<svg version="1.1" id="Layer_1" xmlns="http://www.w3.org/2000/svg" xmlns:xlink="http://www.w3.org/1999/xlink" x="0px" y="0px"
	 viewBox="0 0 300 300" style="enable-background:new 0 0 300 300;" xml:space="preserve">
<style type="text/css">
	.st0{fill:#F7FCFB;}
	.st1{opacity:0.4;fill:#A8C4E5;}
	.st2{fill:#513554;}
	.st3{fill:#6767D6;}
	.st4{fill:#5858B7;}
	.st5{fill:#8585FF;}
	.st6{fill:#492817;}
	.st7{fill:#FFAA82;}
	.st8{fill:#EF9A78;}
	.st9{fill:#91B8DB;}
	.st10{fill:#56547F;}
	.st11{fill:#D0E7F4;}
	.st12{fill:#EA8A6C;}
	.st13{fill:#A8C4E5;}
	.st14{fill:#46466B;}
	.st15{fill:#FFFFFF;}
	.st16{fill:#424268;}
	.st17{fill:#FCFEFF;}
	.st18{fill:none;stroke:#91AFCE;stroke-width:1.1017;stroke-miterlimit:10;}
	.st19{fill:#FDFFFF;}
	.st20{fill:#F2F4F4;}
	.st21{fill:#915151;}
	.st22{fill:#15253D;}
	.st23{fill:#656593;}
	.st24{fill:#E1EAF4;}
	.st25{fill:#644968;}
	.st26{fill:#F1A32F;}
	.st27{fill:#5C5C9E;}
	.st28{fill:#8080BF;}
	.st29{fill:#633820;}
	.st30{fill:#AF8080;}
	.st31{fill:#B9D4EF;}
	.st32{fill:#383554;}
	.st33{fill:#6F6F9E;}
	.st34{fill:#5F4B63;}
	.st35{opacity:0.46;fill:#FFFFFF;}
	.st36{fill:none;}
	.st37{fill:#2B1C2D;}
	.st38{fill:#45446C;}
	.st39{fill:#87A6C4;}
	.st40{fill:#7694AD;}
	.st41{fill:#93B5D1;}
	.st42{fill:#353559;}
	.st43{fill:#53A52C;}
	.st44{fill:#7878EA;}
	.st45{fill:#B3B3FF;}
	.st46{fill:#A1A1E5;}
	.st47{fill:#565682;}
	.st48{fill:#6B6B9B;}
	.st49{fill:#E2E2E8;}
	.st50{fill:#EFEFF4;}
	.st51{fill:#EAEAF4;}
	.st52{fill:#BC4073;}
	.st53{fill:#DD4078;}
	.st54{fill:#EF487C;}
	.st55{fill:url(#SVGID_1_);}
	.st56{fill:url(#SVGID_2_);}
	.st57{opacity:0.32;fill:#7474A3;}
	.st58{fill:#894E4E;}
	.st59{fill:#915350;}
	.st60{fill:#CEAB8B;}
	.st61{fill:#E5C2A5;}
	.st62{fill:#BC9A7E;}
	.st63{fill:url(#SVGID_3_);}
	.st64{fill:url(#SVGID_4_);}
	.st65{fill:#B2D0ED;}
	.st66{fill:#8DB0DA;}
	.st67{fill:#97CBFF;}
</style>
<rect class="st0" width="300" height="300"/>
<g>
	<path class="st1" d="M43.5,172.4l39-22l-36.1-20.8l-28.5,15.6c-4.1,2.3-4.3,8.1-0.4,10.6L43.5,172.4z"/>
	<path class="st1" d="M64.3,184.9c13.2-8.4,31.6-20.6,44.1-28.9c2-1.3,4.6-1.4,6.7-0.2L250.6,234c3.6,2.1,4,5.2,0.9,7l-48.7,28.1
		c-3.1,1.8-8.5,1.6-12.1-0.5L168,255.5l-16,9.2l-19.2-11.1c-2.6-1.5-2.6-5.3,0-6.8l10.1-5.8l-27.2-15.7l-9.4,5.4l-19.2-11.1
		c-2.6-1.5-2.6-5.3,0-6.8l3.5-2l-26.1-15C60.4,193.4,60.3,187.5,64.3,184.9z"/>
	<path class="st2" d="M132.7,216L132.7,216c0.6-0.1,1-0.6,0.9-1.1l-3.8-25.4c-0.1-0.5-0.6-0.9-1.1-0.8l-0.1,0
		c-0.5,0.1-0.9,0.6-0.8,1.1l3.8,25.4C131.7,215.7,132.2,216.1,132.7,216z"/>
	<path class="st2" d="M85,217.7L85,217.7c-0.5-0.1-0.9-0.6-0.8-1.1l4.6-30.9c0.1-0.5,0.6-0.9,1.1-0.8l0,0c0.5,0.1,0.9,0.6,0.8,1.1
		l-4.6,30.9C86,217.4,85.5,217.8,85,217.7z"/>
	<path class="st2" d="M107.5,230.8L107.5,230.8c-0.6-0.1-1-0.6-0.9-1.2l5.3-36c0.1-0.6,0.6-1,1.2-0.9l0,0c0.6,0.1,1,0.6,0.9,1.2
		l-5.3,36C108.6,230.5,108,230.9,107.5,230.8z"/>
	<path class="st3" d="M112.3,201.9l-21.7-12.5c-2-1.2-1.2-3.7,1.8-5.7l7.8-5.1c3-1.9,7.1-2.6,9.1-1.4l21.7,12.5
		c2,1.2,1.2,3.7-1.8,5.7l-7.8,5.1C118.5,202.4,114.4,203.1,112.3,201.9z"/>
	<path class="st4" d="M106.4,179l-15.1,11.7c-2.5,1.5-4.3,0-4.3-2.6l-0.3-4.2c0-2.6,2-6,4.5-7.5l15.3-9.3c2.5-1.5,4.5-0.6,4.5,2
		l0,2.5C110.9,174.2,108.8,177.5,106.4,179z"/>
	<path class="st5" d="M110.5,205.5l-19.2-11.1c-2.1-1.2-3.2-3.6-3.2-3.6c-0.8-1.8,1.1-3.1,3.1-1.9l20.1,11.9
		c2.1,1.2,2.8,2.4,2.5,3.9C113.9,204.8,113.1,206.9,110.5,205.5z"/>
	<path class="st5" d="M130,195.9l-15.3,9.4c-2.5,1.5-4.4,0.8-4.2-1.6l0.1-2.3c0.1-2.4,2.3-5.6,4.7-7.1l15.3-9.4
		c2.5-1.5,4.4-0.8,4.2,1.6l-0.1,2.3C134.6,191.2,132.5,194.4,130,195.9z"/>
	<path class="st2" d="M187.3,176.9L187.3,176.9c0.7-0.1,1.1-0.7,1-1.4l-3.8-25.7c-0.1-0.7-0.7-1.1-1.4-1l0,0c-0.7,0.1-1.1,0.7-1,1.4
		l3.8,25.7C186.1,176.5,186.7,177,187.3,176.9z"/>
	<g>
		<path class="st6" d="M163.1,102.5c-0.9,1.6-1.9,5.4-1.1,7.3c0.1,0.3,2.7,7.4,3,7.3c0.3-0.2,3.9-1.3,4.1-1.5c0.8-0.7,6,4,6.8,3.3
			c1-0.9,1.5-14.2,1.5-15.5c0.1-1.8-8.8-1.7-9.9-3.1c-0.2-0.3-0.5-0.5-0.6-0.8l0,0c-0.3-0.4-0.4-1.2-1-1.1c-0.5,0.1-0.9,0.9-1.1,1.2
			C164.1,100.5,163.9,101.1,163.1,102.5z"/>
	</g>
	<path class="st4" d="M157.9,142.2l-15.1,11.7c-2.5,1.5-4.3,0-4.3-2.6l-0.3-4.2c0-2.6,2-6,4.5-7.5l15.3-9.4c2.5-1.5,4.5-0.6,4.5,2
		l0,2.5C162.4,137.3,160.4,140.7,157.9,142.2z"/>
	<path class="st5" d="M157.4,141.1l7.7-20.2c1.3-3.3,4.8-4.8,7.6-3.2l11.3,6.5c2,1.2,3.2,3.7,2.8,6.2l-3.4,26.3L157.4,141.1z"/>
	<path class="st2" d="M139.3,179.5l-0.2,0c-0.9-0.1-1.6-1-1.4-1.9l4-26.9c0.1-0.9,1-1.6,1.9-1.4l0.2,0c0.9,0.1,1.6,1,1.4,1.9
		l-4,26.9C141.1,179,140.2,179.6,139.3,179.5z"/>
	<path class="st2" d="M180,180.5l0.4-0.1c0.9-0.1,1.5-0.9,1.3-1.8l-3.4-23.2c-0.1-0.9-0.9-1.5-1.8-1.3l-0.4,0.1
		c-0.9,0.1-1.5,0.9-1.3,1.8l3.4,23.2C178.3,180,179.1,180.6,180,180.5z"/>
	<path class="st2" d="M159.1,191.6L159.1,191.6c-1-0.1-1.7-1.1-1.5-2l4.5-30.4c0.1-1,1.1-1.7,2-1.5l0,0c1,0.1,1.7,1.1,1.5,2
		l-4.5,30.4C161,191,160.1,191.7,159.1,191.6z"/>
	<path class="st3" d="M163.2,165.7l-21.7-12.5c-2-1.2-1.2-3.7,1.8-5.7l7.8-5.1c3-1.9,7.1-2.6,9.1-1.4l21.7,12.5
		c2,1.2,1.2,3.7-1.8,5.7l-7.8,5.1C169.3,166.2,165.2,166.8,163.2,165.7z"/>
	<path class="st5" d="M162.1,168.7l-19.2-11.1c-2.1-1.2-3.2-3.6-3.2-3.6c-0.8-1.8,1.1-3.1,3.1-1.9l20.1,11.9
		c2.1,1.2,2.8,2.4,2.5,3.9C165.5,168,164.7,170,162.1,168.7z"/>
	<path class="st5" d="M181.6,159.1l-15.3,9.4c-2.5,1.5-4.4,0.8-4.2-1.6l0.1-2.3c0.1-2.4,2.3-5.6,4.7-7.1l15.3-9.4
		c2.5-1.5,4.4-0.8,4.2,1.6l-0.1,2.3C186.2,154.4,184,157.6,181.6,159.1z"/>
	<g>
		<g>
			<path class="st7" d="M159.7,117.4c-0.8,5.2-3,12.4-7.8,15.4c-4.6,2.9-8.4,4-11.2,9.1c-1.3,2.3,2.3,4.4,3.5,2.1
				c3.2-5.7,9.3-5.8,13.1-10.5c3.5-4.4,5.4-9.6,6.3-15C164.1,115.9,160.1,114.8,159.7,117.4L159.7,117.4z"/>
		</g>
	</g>
	<path class="st7" d="M141.3,144.2L141.3,144.2c-1-0.9-1-2.4-0.1-3.3l3.1-3.3c0.9-1,2.4-1,3.3-0.1l0,0c1,0.9,1,2.4,0.1,3.3l-3.1,3.3
		C143.8,145,142.3,145.1,141.3,144.2z"/>
	<g>
		<g>
			<path class="st8" d="M163,141.9c-8.3,3.9-16,11-15.7,20.7c0.2,5.4,0.6,10.9,0.9,16.3c0.2,3.5,5.7,3.5,5.5,0
				c-0.2-4.6-0.5-9.3-0.7-13.9c-0.1-2.3-0.4-4.6,0.3-6.8c1.7-5.2,7.9-9.4,12.6-11.6C169,145.2,166.2,140.4,163,141.9L163,141.9z"/>
		</g>
	</g>
	<g>
		<g>
			<path class="st9" d="M159.4,117.1c-0.9,2.5-1.5,5.1-2.4,7.6c-0.7,1.9-2,3.4-3.3,4.9c-2.3,2.6,1.5,6.5,3.9,3.9
				c1.8-2,3.4-4,4.4-6.5c1.1-2.7,1.7-5.6,2.7-8.3C165.8,115.2,160.5,113.8,159.4,117.1L159.4,117.1z"/>
		</g>
	</g>
	<path class="st10" d="M159.2,138.3c-9.4,6-15.1,11.4-14.8,14c0,0,4.7-2.6,8.4-0.5c5.4,3.2,0.3,6.1,0.3,6.1s19.9,1.2,21-9.8
		c0.7-6.9,0-6.6,0-6.6S164.3,144.9,159.2,138.3z"/>
	<path class="st11" d="M177.1,117.7c-2.2-2.4-6.3-3.7-9.5-3.9c-0.9,0-0.9,1.3,0,1.4c2.8,0.1,6.6,1.3,8.5,3.5
		C176.7,119.3,177.7,118.3,177.1,117.7L177.1,117.7z"/>
	<path class="st11" d="M161.9,118.7c0,0-3.6,5-3.4,8.1c0.1,2,1.4,4.3,1.6,5c1.4,5.3,0.4,6.8,0.5,8.3c0,0,0.9,5,13.3,1l6-14.8
		L161.9,118.7z"/>
	<path class="st11" d="M178.8,129.5c0.5-0.2,0.6-1,0.6-1c0.5-2.7,2-3.8-0.6-8.6c-0.4-0.8-6.6-4.4-11.4-5.6c-2.3-0.6-4.7,0.6-5.7,2.7
		c-0.6,1.2-1.3,3.7-1.3,3.7c-0.5,4.9,2-1.4,2.2,1.3c0-0.1,0-0.1,0-0.2c0,0,0.3,4.6,0.6,8.2c0.2,2.2,0.3,3.9,0.3,4.1c0,0,0,0,0,0
		l7.9,7l4.8-7.7l0,0L178.8,129.5z"/>
	<path class="st7" d="M168.6,114.5c-0.6-0.1-1.2,0.1-1.6,0.6c-1.1,1.3-2.8,4.2-0.3,6.6c3.4,3.3,10-3.2,10-3.2
		C173.9,116.5,171.2,115.1,168.6,114.5z"/>
	<path class="st7" d="M169.1,116.5l-0.4-8.6l4.8,2.7l0.3,7C173.9,118.8,169.7,121,169.1,116.5z"/>
	<path class="st12" d="M169,114.3c0,0,2.5-0.7,2.6-0.7c0,0-1.1,1.5-2.4,1.9L169,114.3z"/>
	<path class="st13" d="M177.6,128.1c-0.5,0.9-1.1,1.8-1.8,2.7c-1.9,2.3-5.1,3.3-8,2.4c-4.3-1.3-8.6-3.7-8.6-3.7s1.5,6.1,0.7,9.6
		c-0.4,1.6-0.2,1.3-0.2,1.3c0,1.6,2.6,1.3,2.6,1.3c5.4,2,11.6-0.6,11.6-0.6l4.2-10.2L177.6,128.1z"/>
	<path class="st14" d="M158.4,138.9L158.4,138.9c-0.1,0.3-0.1,0.7,0.2,1c0.9,1,3.3,3.2,7.6,3.5c3.7,0.3,6-0.1,7.2-0.4
		c0.5-0.1,0.8-0.6,0.7-1.1l-0.1-0.3c-0.1-0.5-0.6-0.9-1.2-0.8c-2.1,0.5-7,1.3-10.1-0.3c-1.4-0.7-2.3-1.4-2.8-1.9
		C159.5,138,158.7,138.2,158.4,138.9z"/>
	<path class="st15" d="M163.9,143.3l-2-0.8c-0.7-0.3-1.1-1-1-1.7l0,0c0.1-0.7,0.8-1,1.4-0.8l2,0.8c0.7,0.3,1.1,1,1,1.7l0,0
		C165.3,143.2,164.6,143.6,163.9,143.3z"/>
	<path class="st14" d="M163.6,142.6l-1.2-0.5c-0.4-0.2-0.6-0.6-0.6-1l0,0c0.1-0.4,0.4-0.6,0.8-0.4l1.2,0.5c0.4,0.2,0.6,0.6,0.6,1
		l0,0C164.3,142.5,164,142.7,163.6,142.6z"/>
	<path class="st11" d="M166.6,114.2c-0.8,1.3-1.2,3-1.5,4.5c-0.3,1.4-0.2,2.3,1.1,3.2c3.6,2.6,7.9-0.6,10.7-3c0.7-0.6-0.3-1.5-1-1
		c-2,1.7-5.5,4.6-8.3,3.2c-1.8-0.9-1.3-2-0.8-3.6c0.3-0.9,0.5-1.9,0.9-2.6C168.3,114.1,167.1,113.4,166.6,114.2L166.6,114.2z"/>
	<path class="st7" d="M168.2,114.1l-1.6-0.5c-2.4-0.7-3.8-3.3-3.1-5.7l2.3-7.9c0.7-2.4,3.3-3.8,5.7-3.1l1.6,0.5
		c2.4,0.7,3.8,3.3,3.1,5.7l-2.3,7.9C173.2,113.4,170.6,114.8,168.2,114.1z"/>
	<path class="st15" d="M165.2,108.8l2.4,1.9c0.1,0.1,0.1,0.2,0.1,0.3c-0.2,0.4-0.7,1.3-2.1,0.3c-1-0.6-1-1.7-0.9-2.3
		C164.8,108.7,165,108.6,165.2,108.8z"/>
	<path class="st6" d="M169.6,108.3c-0.1,0.3-0.3,0.6-0.5,0.5c-0.2,0-0.2-0.4-0.1-0.7c0.1-0.3,0.3-0.6,0.5-0.5
		C169.6,107.6,169.7,107.9,169.6,108.3z"/>
	<path class="st6" d="M166,105.7c-0.1,0.3-0.3,0.6-0.5,0.5c-0.2,0-0.2-0.4-0.1-0.7c0.1-0.3,0.3-0.6,0.5-0.5
		C166,105,166.1,105.3,166,105.7z"/>
	<path class="st6" d="M169.4,106.2c0.6,0.2,1.3,0.7,1.6,1.3c0.2,0.4,0.8,0,0.6-0.4c-0.4-0.7-1.2-1.4-2-1.6
		C169.1,105.5,168.9,106.1,169.4,106.2L169.4,106.2z"/>
	<path class="st6" d="M165.3,103.4c0.6,0.1,1.3,0.6,1.7,1.1c0.2,0.4,0.8,0,0.6-0.4c-0.4-0.7-1.3-1.3-2.1-1.4
		C165.1,102.7,164.9,103.3,165.3,103.4L165.3,103.4z"/>
	<g>
		<g>
			<path class="st7" d="M176.4,126.9c1,6.4,5.6,17-1.1,21.2c-4.5,2.8-9,4.6-10.2,10.3c-0.6,2.6,3.4,3.7,4,1.1
				c1.5-6.7,9.9-6.6,12.9-12.1c3.2-5.9-0.5-15.5-1.5-21.6C180,123.2,176,124.4,176.4,126.9L176.4,126.9z"/>
		</g>
	</g>
	<path class="st7" d="M166.2,161.7L166.2,161.7c-1.2-0.6-1.7-2-1.1-3.2l2-4.1c0.6-1.2,2-1.7,3.2-1.1l0,0c1.2,0.6,1.7,2,1.1,3.2
		l-2,4.1C168.8,161.7,167.4,162.2,166.2,161.7z"/>
	<g>
		<g>
			<path class="st11" d="M174.7,124c2.5,6.3,3.5,12.4,3.4,19.2c0,3.5,5.4,3.5,5.5,0c0.1-7.2-1-13.9-3.6-20.6
				C178.7,119.3,173.4,120.7,174.7,124L174.7,124z"/>
		</g>
	</g>
	<path class="st6" d="M172.1,103.5c-1.2-2.6-5-0.9-6.6-2c-1.7-1.2-0.6-3,1.1-4.2c0.9-0.7,1.9-1.1,3.8-1.3c5.3-0.6,9.7,2.7,8.4,8.2
		c0,0,0.1,8.4-4.5,8.3l-0.2-2.9c0,0,1.8-1.1-0.5-3.5c-0.5-0.5-0.6-0.6-0.3-1.5C173.8,103.9,172.5,104.4,172.1,103.5z"/>
	<path class="st6" d="M172,103.2c0,0,3.2,7.6,1.7,11.6c-1.2,3.3-5.5,4.6-7.5,9.6c-0.4,1,0.8,2,1.7,1.3c1.1-0.9,2.5-1.8,4.1-2.3
		c3.8-1.4,5.5-3.7,5.6-5.5c0.1-1.8,1.6-14.7,1.6-14.7l-7.2-2.7L172,103.2z"/>
	<path class="st6" d="M163.3,105.6c0,0,0.7-2.5,7.6-4.2c6.9-1.7,0.3-0.1,0.3-0.1l-5.6-2.9C165.5,98.4,162.5,100.5,163.3,105.6z"/>
	<path class="st7" d="M175,111.4c-0.9,0.4-1.6,0-1.7-0.9c-0.1-0.9,0.6-2,1.4-2.4c0.9-0.4,1.6,0,1.7,0.9
		C176.5,109.9,175.9,111,175,111.4z"/>
	<path class="st4" d="M215.2,171.3l-16.1,12.5c-2.6,1.6-4.6,0-4.6-2.8l-0.3-4.5c0-2.8,2.2-6.4,4.8-8l16.3-10
		c2.6-1.6,4.8-0.7,4.8,2.1l0,2.7C220,166.1,217.8,169.7,215.2,171.3z"/>
	<g>
		<g>
			<path class="st7" d="M219.7,144.8c-2.7,5.3-7.5,8.8-10,14.2c-2.6,5.7-6.7,8-10.8,12.6c-1.9,2.1,1.2,5.2,3.1,3.1
				c3.7-4,8.3-6.6,10.7-11.6c1.4-3,2.6-5.2,4.9-7.6c2.4-2.6,4.3-5.2,5.9-8.4C224.8,144.5,221,142.2,219.7,144.8L219.7,144.8z"/>
		</g>
	</g>
	<path class="st16" d="M212.7,147.8l-4.3,10.9c-0.5,3.4,7.1,4.7,7.7,2l3.2-10.8c0.4-1.7-0.6-3.5-2.3-4.1v0
		C215.3,145.1,213.3,146,212.7,147.8z"/>
	<g>
		<g>
			<path class="st17" d="M209.4,157.8c1.9,1.1,4,1.4,6.1,0.9c0.9-0.2,0.5-1.6-0.4-1.4c-1.7,0.4-3.5,0.1-5-0.7
				C209.3,156.1,208.6,157.3,209.4,157.8L209.4,157.8z"/>
		</g>
	</g>
	<path class="st2" d="M245.3,211.1L245.3,211.1c0.5-0.1,0.9-0.6,0.8-1.1l-3.9-26.2c-0.1-0.5-0.6-0.9-1.1-0.8l0,0
		c-0.5,0.1-0.9,0.6-0.8,1.1l3.9,26.2C244.3,210.8,244.8,211.2,245.3,211.1z"/>
	<path class="st5" d="M214.6,170.1l8.2-21.6c1.3-3.5,5.1-5.1,8.1-3.4l12,7c2.2,1.3,3.4,3.9,3,6.7l-3.6,28.1L214.6,170.1z"/>
	<path class="st5" d="M220.8,196.3L197.8,183c-2.1-1.2-1.3-3.9,1.9-6l8.3-5.4c3.2-2.1,7.6-2.8,9.7-1.5l23.1,13.3
		c2.1,1.2,1.3,3.9-1.9,6l-8.3,5.4C227.3,196.8,223,197.5,220.8,196.3z"/>
	<path class="st10" d="M210.4,176.3c0.6,0.9,4.8-10.5,2.4-26.4l21.3,10.2c-0.6,10.3-4,13.7-6.6,26.3L210.4,176.3z"/>
	<path class="st16" d="M222.1,182c0.6,0.8,10.4-6.4,8.7-19.2c-0.2-1.6,0-1.8,1.6-1.3l2-1.3c0.4,8.4,3.8,8.8,0.4,20.2
		c-0.8,2.6-5.1,7.6-7.7,6.1L222.1,182z"/>
	<path class="st5" d="M237.9,190.5l-16.3,10c-2.6,1.6-4.7,0.9-4.5-1.7l0.1-2.4c0.1-2.5,2.4-5.9,5.1-7.5l16.3-10
		c2.6-1.6,4.7-0.9,4.5,1.7l-0.1,2.4C242.8,185.5,240.5,188.9,237.9,190.5z"/>
	<rect x="38.6" y="83.3" class="st13" width="2.9" height="84.9"/>
	<rect x="73.1" y="63" class="st13" width="2.9" height="84.9"/>
	<path class="st13" d="M84.7,118.8l-31.2,18.4c-3.8,2.3-8.9-0.3-9.4-4.8l-8.7-77.3c-0.3-2.4,0.8-4.6,2.9-5.8l31.2-18.4
		c3.8-2.3,8.9,0.3,9.4,4.8l8.7,77.3C87.9,115.4,86.7,117.6,84.7,118.8z"/>
	<path class="st18" d="M84.7,118.8l-31.2,18.4c-3.8,2.3-8.9-0.3-9.4-4.8l-8.7-77.3c-0.3-2.4,0.8-4.6,2.9-5.8l31.2-18.4
		c3.8-2.3,8.9,0.3,9.4,4.8l8.7,77.3C87.9,115.4,86.7,117.6,84.7,118.8z"/>
	<path class="st13" d="M69.4,143.8L69.4,143.8c1-0.6,2.6-0.7,3.5-0.1l9.4,5.5c0.9,0.5,0.8,1.4-0.3,2v0c-1,0.6-2.6,0.7-3.5,0.1
		l-9.4-5.5C68.3,145.3,68.4,144.4,69.4,143.8z"/>
	<path class="st19" d="M82.5,110.4L50,130.2l-9.4-83.2l28.2-16.6c2-1.2,4.7,0.2,5,2.6L82.5,110.4z"/>
	<path class="st20" d="M71.3,35.4c0.8-0.4,2.2,0.1,2.8,0.6l-0.3-2.9c-0.3-2.4-2.9-3.8-5-2.6L40.6,47.2l0.6,5.5L71.3,35.4z"/>
	<path class="st13" d="M75.5,79.3L56.2,90.6c-0.2,0.1-0.4,0-0.5-0.3l0,0c0-0.3,0.1-0.7,0.3-0.8l19.3-11.3c0.2-0.1,0.4,0,0.5,0.3l0,0
		C75.9,78.8,75.8,79.2,75.5,79.3z"/>
	<path class="st13" d="M68.1,59.3L48.8,70.6c-0.2,0.1-0.4,0-0.5-0.3l0,0c0-0.3,0.1-0.7,0.3-0.8L68,58.2c0.2-0.1,0.4,0,0.5,0.3l0,0
		C68.5,58.8,68.3,59.2,68.1,59.3z"/>
	<path class="st13" d="M55.8,90.2l-2-14.8c0-0.3,0.1-0.7,0.3-0.8l0.1,0c0.2-0.1,0.5,0,0.5,0.4l2,14.8c0,0.3-0.1,0.7-0.3,0.8l-0.1,0
		C56,90.7,55.8,90.5,55.8,90.2z"/>
	<path class="st13" d="M53,98.5l-0.3,0.2c-1,0.6-1.9-0.1-2.1-1.5l-2.2-16.7c-0.2-1.4,0.5-2.9,1.4-3.5l0.3-0.2c1-0.6,1.9,0.1,2.1,1.5
		L54.5,95C54.6,96.4,54,98,53,98.5z"/>
	<path class="st13" d="M72.1,84.8c0.2,1.3,1.2,1.9,2.3,1.3c1.1-0.6,1.8-2.2,1.7-3.6c-0.2-1.3-1.2-1.9-2.3-1.3
		C72.7,81.8,72,83.4,72.1,84.8z"/>
	<path class="st13" d="M67,87.8l-1-1.9c0.2-0.2,0.4-0.4,0.6-0.5c1.1-0.6,2.1-0.1,2.3,1.3c0.2,1.3-0.6,2.9-1.7,3.6
		c-1.1,0.6-2.1,0.1-2.3-1.3c0-0.1,0-0.2,0-0.3L67,87.8z"/>
	<path class="st13" d="M59.6,92.1l0.7-2.7c0.6,0.1,1.1,0.6,1.3,1.5c0.2,1.3-0.6,2.9-1.7,3.6c-1.1,0.6-2.1,0.1-2.3-1.3
		c0-0.1,0-0.1,0-0.2L59.6,92.1z"/>
	<polygon class="st14" points="58.5,87 58,86.9 61.1,78.5 64.9,79.6 68.4,71.1 71.5,71.8 73.9,66 74.3,66.2 71.7,72.6 68.6,71.9 
		65,80.4 61.3,79.4 	"/>
	<path class="st14" d="M59.1,86.2c0.1,0.5-0.2,1-0.6,1.3c-0.4,0.2-0.7,0-0.8-0.4c-0.1-0.5,0.2-1,0.6-1.3
		C58.7,85.5,59,85.7,59.1,86.2z"/>
	<path class="st14" d="M61.9,78.5c0.1,0.5-0.2,1-0.6,1.3c-0.4,0.2-0.7,0-0.8-0.4c-0.1-0.5,0.2-1,0.6-1.3
		C61.5,77.9,61.9,78.1,61.9,78.5z"/>
	<path class="st14" d="M65.6,79.5c0.1,0.5-0.2,1-0.6,1.3c-0.4,0.2-0.7,0-0.8-0.4c-0.1-0.5,0.2-1,0.6-1.3
		C65.2,78.9,65.5,79.1,65.6,79.5z"/>
	<path class="st14" d="M69.2,71.2c0.1,0.5-0.2,1-0.6,1.3c-0.4,0.2-0.7,0-0.8-0.4c-0.1-0.5,0.2-1,0.6-1.3
		C68.8,70.6,69.1,70.8,69.2,71.2z"/>
	<path class="st14" d="M72.4,71.7c0.1,0.5-0.2,1-0.6,1.3c-0.4,0.2-0.7,0-0.8-0.4c-0.1-0.5,0.2-1,0.6-1.3
		C72,71.1,72.3,71.3,72.4,71.7z"/>
	<path class="st14" d="M74.7,66c0.1,0.5-0.2,1-0.6,1.3c-0.4,0.2-0.7,0-0.8-0.4c-0.1-0.5,0.2-1,0.6-1.3C74.3,65.3,74.6,65.5,74.7,66z
		"/>
	<g>
		<path class="st7" d="M93.3,92.3c0.4,0.1,0.9,0.2,1.3,0.1c1-0.2,1.9-1.1,2.7-1.9c0.1-0.1,0.1-0.2,0.2-0.3c0.1-0.2,0-0.5-0.1-0.6
			c-0.7-1.1-2-1.3-3.1-1.7c-0.5-0.2-1-0.5-1.4-0.7c-0.8-0.3-1.6-0.5-2.4-0.7h0c-1-0.2-4.5-0.9-4.4,1.6c0,1.1,1,1.9,1.7,2.3
			c0.8,0.6,1.6,1,2.5,1.2C91.2,91.9,92.3,92.1,93.3,92.3z"/>
	</g>
	<g>
		<g>
			<path class="st7" d="M92.8,90.8c2.2,1.9,5,3.1,7.6,4.2c2.8,1.2,5.9,2.6,9,2.5c2.7-0.1,2.7-4.2,0-4.1c-2.5,0.1-5.2-1.2-7.4-2.1
				c-2.1-0.9-4.5-1.8-6.3-3.3C93.7,86.1,90.8,89.1,92.8,90.8L92.8,90.8z"/>
		</g>
	</g>
	<path class="st13" d="M33.7,164.4L33.7,164.4c1-0.6,2.6-0.7,3.5-0.1l9.4,5.5c0.9,0.5,0.8,1.4-0.3,2l0,0c-1,0.6-2.6,0.7-3.5,0.1
		l-9.4-5.5C32.6,165.9,32.7,165,33.7,164.4z"/>
	<path class="st21" d="M94.6,90.6L94.6,90.6C94.4,91,94,91.1,93.6,91L70.1,80.4c-0.4-0.2-0.5-0.6-0.4-0.9l0,0
		c0.2-0.4,0.6-0.5,0.9-0.4l23.6,10.5C94.6,89.8,94.7,90.3,94.6,90.6z"/>
	<path class="st7" d="M96.8,89c-0.6-0.7-1.5-1.6-2.2-2.1c-0.5-0.5-1.2-0.7-1.9-0.8c-1.3-0.1-3.6-0.2-4.1,0.5c-0.7,0.9,0.5,1.6,1.2,2
		c1.4,0.9,3.5,1.2,5.1,1.3c0.3,0,0.5-0.1,0.6-0.3c0.1,0.1,0.2,0.2,0.3,0.3C96.3,90.7,97.3,89.7,96.8,89z"/>
	<polygon class="st11" points="97.6,88.5 100.3,89.7 97.4,94 95.2,92.5 	"/>
	<path class="st16" d="M99.7,89c1.1,0.3,3.9,1.3,8.9,3c-0.1-5.3-0.1-15.9,2.2-20.7c1.4-2.9,6.2-1.2,4.8,1.8
		c-1.3,2.7-2.1,5.5-2.3,8.6c-0.2,2.5,0,5.1,0,7.6c0,2.3-0.2,4.6-0.8,6.9c-0.4,1.5-1.2,3.1-2.8,3.4c-3.4,0.6-12.7-5.3-12.8-5.5
		L99.7,89z"/>
	
		<ellipse transform="matrix(1 -5.421694e-03 5.421694e-03 1 -0.8649 0.6399)" class="st1" cx="117.6" cy="159.8" rx="16.8" ry="9.7"/>
	<path class="st16" d="M128,77.2l-11-4.8l1.4-4.6c2.8-0.1,7.9,2.8,10.3,4.4L128,77.2z"/>
	<path class="st22" d="M130.3,163.5c0.1-0.1,1-2.1,1.2-3.3c0-0.2,0.1-1.3,0.1-1.6c0-0.8,0.1-1.2-1.7-2.3c-2.9-1.8-5.6,7.9-5.6,7.9
		l-0.2,2.4c-0.1,0.4,0.3,0.9,0.6,1.1l0.2,0.1c1.4,0.3,2.2,0,2.8-0.7C128.9,166,129.3,165.8,130.3,163.5z"/>
	<path class="st10" d="M130.3,162.9c0.1-0.1,2.7-5.9,0.1-7c-2.3-0.9-3.4,1.3-4.3,3.7c-0.3,0.7-0.9,2.2-1.2,2.7
		c-0.2,0.4-0.4,1.5-0.5,1.9l0,1.9c-0.1,0.4,0.5,0,0.9,0.3l0.3-1.6c0.7,0.5,1.3,2.5,1.9,1.8C128.6,165.4,129.3,165.2,130.3,162.9z"/>
	<path class="st23" d="M128.9,165.2c-0.3,0.3-0.9,0.9-1.2,1.3c-0.6,0.7-1.5,0.7-2.4,0.5c-0.5-0.1-1.1-0.3-1-1l0.2-1.7
		C125.1,163.9,127,164.3,128.9,165.2z"/>
	<g>
		<g>
			<path class="st2" d="M125.5,105.9c-5.1,16.3,0.4,32.4,0.4,48.8c0,4,6.3,4,6.2,0c0-15.8-5.5-31.5-0.7-47.1
				C132.7,103.7,126.6,102.1,125.5,105.9L125.5,105.9z"/>
		</g>
	</g>
	<g>
		<g>
			<path class="st2" d="M111.8,104.5c-2.1,7.9-3.9,17.4-3.2,25.6c0.5,6.3,1.7,12.7,1.7,19c0,4,6.3,4,6.2,0c0-6.1-1.1-12.2-1.7-18.3
				c-0.8-8,0.9-17,2.9-24.7C118.9,102.3,112.8,100.6,111.8,104.5L111.8,104.5z"/>
		</g>
	</g>
	<path class="st24" d="M126.6,154.8c1.3,1.1,4.1,0.9,5.1-0.5c0,0.8,0,1.6,0,2.4c0,3.3-5.1,3.4-5.1,0.1
		C126.6,156.1,126.6,155.4,126.6,154.8z"/>
	<g>
		<path class="st2" d="M114.6,115.2l0.5-0.1c0.6,0.6-0.6-1.8,0.1-1.3c1.5,0.9,7.9,5.5,9.7,5.5c2.2,0,3,1.3,4.6-0.2
			c1.5-1.4,2.1-6.1,1.4-7.8c-0.2-0.5-1.6-1.5-1.8-2c-0.2-0.6,1.8-0.5,1.3-0.8c-3.9-2.9-11.4-10.1-16.8-7.8
			C107.4,103.2,111.9,112.1,114.6,115.2z"/>
	</g>
	<path class="st11" d="M112.6,70.8c-1.1,1.4-1,2.3-0.9,4.3c0.1,1.9,1.3,3.6,3.2,4.1l18.8,5.3c0,0,1.1-7.2-2.6-9.4
		c-2-1.2-5.1-3.1-7.5-4.5C119.9,68.3,115.1,67.5,112.6,70.8z"/>
	<path class="st11" d="M111.6,104.8c0.6,0.7,1.3-19.6,0.2-32.4l21.2,10.1c-0.1,9.7-2.9,17.1-1.8,28.9L111.6,104.8z"/>
	<path class="st11" d="M125.8,112.7c-5.2-1.9-10.2-4-13.2-7.6c-1.4-0.8-1.3-2.3,0.4-3.3l0,0c1.7-1,4.2-1.1,5.6-0.2
		C118.7,101.6,127.2,113.5,125.8,112.7z"/>
	<path class="st25" d="M132.9,153.9l0.1,2.3c0,0.1,0,0.2-0.1,0.3c-0.3,0.5-1.6,2.1-4,1.8c-2.2-0.3-3.3-0.9-3.8-1.2
		c-0.1-0.1-0.2-0.2-0.2-0.4l0.1-2.3c0-0.3,0.4-0.6,0.7-0.4c1.1,0.6,3.6,1.4,6.6-0.4C132.5,153.3,132.9,153.5,132.9,153.9z"/>
	<path class="st22" d="M110.6,157.5c0.1-0.1,1.5-1.2,1.6-1.2c0.2-0.1,2.2-1.1,2.5-1.2c0.7-0.4,2.2-0.6,1.4-2.7
		c-1.2-3.1-9.4,1.8-9.4,1.8l-2.7,2.1c-0.3,0.3-0.5,0.6-0.3,1.1v0c0.2,0.7,1.2,1.3,2.2,1.2C107.4,158.3,108.3,158.5,110.6,157.5z"/>
	<path class="st10" d="M110.5,156.7c0.1-0.1,1.5-1.2,1.6-1.2c0.2-0.1,2.6-1,2.9-1.2c0.7-0.4,2.2-0.8,1.4-2.9c-1.2-3.1-9.7,2-9.7,2
		l-2.7,2.1c-0.3,0.3-0.5,0.6-0.3,1.1l0,0c0.2,0.7,1.2,1.3,2.2,1.2C107.3,157.5,108.1,157.7,110.5,156.7z"/>
	<path class="st23" d="M107.3,157.6c-0.4,0-1.2,0-1.7,0.1c-0.9,0.1-1.8-0.5-2.1-1.2c-0.1-0.4,0-0.8,0.3-1.1l1.3-1
		C106.3,154.7,107,155.8,107.3,157.6z"/>
	<path class="st24" d="M111.1,148.5c1.3,1,4.1,0.9,5.1-0.4c0,0.7,0,1.4,0,2.1c-0.1,2.9-5.2,2.9-5.1,0
		C111.2,149.6,111.2,149,111.1,148.5z"/>
	<path class="st25" d="M117.6,147.5l-0.1,2.3c0,0.1,0,0.2-0.1,0.3c-0.3,0.5-1.7,2-4.1,1.6c-2.1-0.4-3.3-1.1-3.7-1.4
		c-0.1-0.1-0.2-0.3-0.2-0.4l0.2-2.3c0-0.3,0.4-0.5,0.7-0.4c1.1,0.6,3.5,1.6,6.6-0.1C117.2,146.9,117.6,147.2,117.6,147.5z"/>
	<path class="st7" d="M119.5,72.2l-1.9-7.6l5.5,1.4l1.6,6.2C125,73.2,121,76,119.5,72.2z"/>
	<path class="st26" d="M120.3,111.5c1.7,0.8,3.5,1.5,5.4,2.2c1.4,0.8,4.8-2.1,4.8-2.1c-1.2-11.8,2.3-19.5,2.5-29.1l-0.7-0.4
		C131.8,93.4,130,111.1,120.3,111.5z"/>
	<path class="st27" d="M128.6,72.1c0,0-6.2,6.7-7.4,22.7c-0.5,6.6-1.2,11.1-1.7,13.7c-0.3,1.6,0.5,3.2,2,4c2.3,1.2,5,1.9,8,1.4
		c1.2-0.2,1.8-1.2,1.9-2.4c-0.9-9.8,0-19.3,2.5-28.8l-1-6.2c-0.1-0.4-0.2-1.3-0.6-1.7L128.6,72.1z"/>
	<path class="st27" d="M117.9,69.5c0,0-4.2,10.8-2,38.1c0.1,0.9-0.9,1.5-1.7,1.1c-0.9-0.4-1.9-1.1-2.6-1.6c-0.7-0.5-1.1-1.2-1-2
		c0.3-5.5,0.4-27.5,0.4-27.5s-0.8-9.6,6.8-9.3C126.6,68.7,117.9,69.5,117.9,69.5z"/>
	<path class="st28" d="M114.2,69.1c-0.7,3.7-2.1,8-1.5,10.6l1.8-0.3l-1,3.3l1.8,12.8c0,0-0.6-13.5,3.1-27.7
		C116.6,67.8,116.1,68.2,114.2,69.1z"/>
	<path class="st12" d="M119.2,70.5c0,0,2.3-1.5,2.3-1.5c0,0-0.7,2.3-1.9,3L119.2,70.5z"/>
	<path class="st7" d="M118.3,70.3l-1.6-0.2c-2.5-0.3-4.3-2.6-4-5.1l1.1-8.3c0.3-2.5,2.6-4.3,5.1-4l1.6,0.2c2.5,0.3,4.3,2.6,4,5.1
		l-0.6,6.1C123.5,66.7,120.8,70.6,118.3,70.3z"/>
	<path class="st21" d="M119.9,59.2c-1.8,0.5-2.8,0.3-4.6-0.7c-1.9-1.1-1.8-3.8,0-5c1-0.7,1.1-1.1,3.1-1.6c5.6-1.3,10.8,2.3,10,8.3
		c0,0,0.4,8-4.6,8.5l-0.7-2.5c0,0,0.9-0.4,0-1.7c-0.3-0.3-0.6-0.8-1.2-1.2c-0.6-0.5-0.6-1.5-0.4-2.5
		C121.8,59.7,120.9,58.9,119.9,59.2z"/>
	<path class="st7" d="M124.3,66.7c-0.8,0.5-1.6,0.1-1.8-0.8c-0.2-0.9,0.4-2,1.2-2.5c0.8-0.5,1.6-0.1,1.8,0.8
		C125.6,65.1,125.1,66.2,124.3,66.7z"/>
	<path class="st6" d="M118.1,63.8c-0.1,0.3-0.2,0.6-0.4,0.6c-0.2,0-0.3-0.3-0.2-0.7c0.1-0.3,0.2-0.6,0.4-0.6
		C118.1,63.1,118.2,63.4,118.1,63.8z"/>
	<path class="st6" d="M114.5,61.7c-0.1,0.3-0.2,0.6-0.4,0.6c-0.2,0-0.3-0.3-0.2-0.7c0.1-0.3,0.2-0.6,0.4-0.6
		C114.4,61.1,114.5,61.4,114.5,61.7z"/>
	<g>
		<g>
			<path class="st29" d="M118.1,62c0.5,0.1,1,0.4,1.3,0.8c0.3,0.4,0.8,0,0.6-0.3c-0.4-0.6-1-1-1.7-1.2
				C117.8,61.3,117.6,61.9,118.1,62L118.1,62z"/>
		</g>
	</g>
	<g>
		<g>
			<path class="st29" d="M114,59.9c0.6,0,1.3,0.2,1.6,0.7c0.3,0.3,0.8-0.2,0.5-0.5c-0.5-0.6-1.4-0.8-2.1-0.9
				C113.6,59.2,113.6,59.9,114,59.9L114,59.9z"/>
		</g>
	</g>
	<path class="st30" d="M113.2,61.8c-0.3,2.5,1.5,4.8,4,5.1l1.6,0.2c1.6,0.2,2.7-1.5,3.7-3.5l0,0c0.3,0.3,0.7,0.2,0.9-0.1l0.1-0.2
		l-0.5,1.9c-0.3,2.5-2.4,5.7-4.9,5.3l-1.6-0.2c-2.5-0.3-4.3-2.6-4-5.1l1.1-8.3c0-0.3,0.1-0.7,0.2-1L113.2,61.8z"/>
	<path class="st15" d="M114.2,64.9l2.6,1.6c0.1,0.1,0.2,0.2,0.1,0.3c-0.1,0.4-0.6,1.3-2,0.5c-1-0.6-1.1-1.6-1.1-2.3
		C113.7,64.9,114,64.8,114.2,64.9z"/>
	<polygon class="st11" points="134.4,108 131.6,109.7 129.4,106.6 132.3,104.8 	"/>
	<path class="st27" d="M131.8,105.9c-0.4-0.5-0.3-1.2,0.1-1.7c2-1.8,3-4.3,3.2-7.5c0.4-6.8-3.1-12.6-6.5-18.2
		c-1.7-2.8,2.7-5.3,4.4-2.6c4.2,6.8,8.1,14,7.1,22.3c-0.4,3.1-1.4,6.1-3.4,8.6c-0.4,0.5-0.9,1-1.4,1.4c-0.5,0.5-1.3,0.4-1.8-0.2
		L131.8,105.9z"/>
	<path class="st7" d="M129.6,111.3c0.1,0.1,3.2-1.1,1.9-3.6c-1.2-2.5-4.8-0.1-4.8-0.1S128.3,110.1,129.6,111.3z"/>
	<g>
		<g>
			<path class="st16" d="M125.2,105c0.3,1.7,1.1,3.1,1.9,4.5c0.8,1.3,1.8,2.1,3,3c0.5,0.4,1.2-0.3,0.7-0.7c-1.1-0.9-2.1-1.6-2.8-2.8
				c-0.8-1.3-1.6-2.7-1.8-4.3C126.1,104.1,125.1,104.4,125.2,105L125.2,105z"/>
		</g>
	</g>
	<path class="st16" d="M131.2,74.3l-3.7,9l-2.4-0.4l0.6,3.8L121,97.9c0,0,0.8-7.8,2.9-16.5c0.8-3.5,2.7-6.4,2.6-10.6
		C128.3,72,129.7,72.8,131.2,74.3z"/>
	<path class="st28" d="M130.4,73.6l-3.6,8.7l-2.4-0.4l0.6,3.8L121,96.5c0,0,0.2-8.7,3-18.2c0.7-2.5,2.2-5.8,1.6-8.1
		C127.3,71,128.9,72.2,130.4,73.6z"/>
	<path class="st2" d="M213.2,222.1L213.2,222.1c-1-0.2-1.8-1.1-1.6-2.2l4.8-32.4c0.2-1,1.1-1.8,2.2-1.6l0,0c1,0.2,1.8,1.1,1.6,2.2
		l-4.8,32.4C215.3,221.5,214.3,222.2,213.2,222.1z"/>
	<path class="st5" d="M216.4,197.7L196,185.9c-2.2-1.3-3.4-3.8-3.4-3.8c-0.8-1.9,1.1-3.2,3.3-2l21.5,12.6c2.2,1.3,3,2.6,2.7,4.2
		C220,196.9,219.2,199.1,216.4,197.7z"/>
	<path class="st2" d="M82.4,204L82.4,204c-1.1-0.2-1.9-1.2-1.8-2.4l7.3-49.4c0.2-1.1,1.2-1.9,2.4-1.8h0c1.1,0.2,1.9,1.2,1.8,2.4
		l-7.3,49.4C84.6,203.3,83.5,204.1,82.4,204z"/>
	<rect x="79.7" y="151.3" class="st13" width="6.7" height="3.9"/>
	<path class="st13" d="M163,204.1l-82.5-47.6c-1.3-0.7-1.1-2.1,0.4-2.9l38.5-22.2c1.5-0.9,3.8-1,5-0.2l82.5,47.6
		c1.3,0.7,1.1,2.1-0.4,2.9l-38.5,22.2C166.6,204.8,164.3,204.9,163,204.1z"/>
	<path class="st2" d="M249.5,240.9l0.2,0c1.1-0.2,1.8-1.2,1.7-2.3l-5-33.9c-0.2-1.1-1.2-1.8-2.3-1.7l-0.2,0
		c-1.1,0.2-1.8,1.2-1.7,2.3l5,33.9C247.4,240.3,248.4,241,249.5,240.9z"/>
	<path class="st2" d="M198.4,271.1L198.4,271.1c-1.1-0.1-2-1.1-1.9-2.3l4.8-55.8c0.1-1.1,1.1-2,2.3-1.9h0c1.1,0.1,2,1.1,1.9,2.3
		l-4.8,55.8C200.5,270.3,199.5,271.2,198.4,271.1z"/>
	<rect x="124.6" y="177.2" class="st13" width="6.7" height="3.9"/>
	<rect x="246" y="202" class="st13" width="6.7" height="3.9"/>
	<path class="st13" d="M207.9,230l-82.5-47.6c-1.3-0.7-1.1-2.1,0.4-2.9l38.5-22.2c1.5-0.9,3.8-1,5-0.2l82.5,47.6
		c1.3,0.7,1.1,2.1-0.4,2.9l-38.5,22.2C211.5,230.7,209.2,230.8,207.9,230z"/>
	<path class="st31" d="M251.8,200.9l-82.5-47.6c0,0,0,0,0,0l-44.8-25.9c-1.3-0.7-3.6-0.7-5,0.2l-38.5,22.2c-1.5,0.9-1.7,2.2-0.4,2.9
		l82.5,47.6c0,0,0,0,0,0l44.8,25.9c1.3,0.7,3.6,0.7,5-0.2l38.5-22.2C252.9,203,253.1,201.7,251.8,200.9z"/>
	<g>
		<g>
			<path class="st7" d="M232.6,170.3c-0.1,10-9.1,13.9-17.8,14.8c-2.8,0.3-2.8,4.7,0,4.4c11.1-1.2,22.1-6.6,22.2-19.2
				C237,167.5,232.6,167.5,232.6,170.3L232.6,170.3z"/>
		</g>
	</g>
	<path class="st7" d="M194.7,177.8L194.7,177.8c-0.9-1.1-0.7-2.7,0.4-3.5l4.2-3.4c1.1-0.9,3.1-2.1,4-1l2,1.8l-7,6.6
		C197.2,179,195.6,178.9,194.7,177.8z"/>
	<path class="st10" d="M214.3,146.2c-1.4,1.4-1.4,2.5-1.6,4.6c-0.2,2.1,1,4.1,3,4.9l21,8.3c0,0,2.8-6.9-1-9.7
		c-2.1-1.6-6.8-5.1-9.3-7C222.8,144.4,217.6,142.9,214.3,146.2z"/>
	<path class="st10" d="M230.7,158.1l0.8,11.7c1,3.3,8.4,1.3,7.9-1.5l-1.7-11.2c-0.4-1.8-2-2.9-3.8-2.8l0,0
		C232,154.6,230.6,156.2,230.7,158.1z"/>
	<g>
		<g>
			<path class="st17" d="M232.3,168.3c2.1,0.3,4.2-0.1,6.1-1.2c0.8-0.5,0.1-1.8-0.7-1.3c-1.5,1-3.2,1.4-4.9,1.1
				C231.8,166.7,231.4,168.1,232.3,168.3L232.3,168.3z"/>
		</g>
	</g>
	<path class="st16" d="M229.2,151.9l-8.9-2.7l2.1-4.9c3.1,0.3,5.2,1.6,7.7,3.6L229.2,151.9z"/>
	<path class="st32" d="M223.3,150.3c0,0,0.7,0.3,1.4,0.3l1.9,4.4l-0.1,0.1c-0.4,0.4-1.1,0.2-1.3-0.2L223.3,150.3z"/>
	<path class="st32" d="M225.7,151.4c0,0-0.7-0.1-1.1-0.6l-4.1,2.1l0,0.2c0.1,0.5,0.6,0.8,1.1,0.6L225.7,151.4z"/>
	<path class="st32" d="M223.9,154.4c0,0.3-0.3,0.4-0.5,0.2c-0.2-0.2-0.4-0.6-0.4-0.8c0-0.3,0.3-0.4,0.5-0.2
		C223.7,153.7,223.9,154.1,223.9,154.4z"/>
	<path class="st32" d="M223.6,156.5c0,0.3-0.3,0.4-0.5,0.2c-0.2-0.2-0.4-0.6-0.4-0.8s0.3-0.4,0.5-0.2
		C223.5,155.8,223.6,156.2,223.6,156.5z"/>
	<path class="st32" d="M223.4,158.5c0,0.3-0.3,0.4-0.5,0.2c-0.2-0.2-0.4-0.6-0.4-0.8c0-0.3,0.3-0.4,0.5-0.2
		C223.2,157.9,223.4,158.2,223.4,158.5z"/>
	<path class="st33" d="M225.2,150.7c0,0-2.6-0.3-2.5-4.8l-1.7-0.4c-0.3,0.2-0.7,0-1.1,1.4c-0.2,0.9-0.3,1.8-0.2,2.7l0.3,2.6
		c0.1,0.6,0.7,0.9,1.3,0.6L225.2,150.7z"/>
	<path class="st17" d="M225.3,150.7c0,0-0.7-0.1-1.1-0.6l-4.1,2.1l0,0.2c0.1,0.5,0.6,0.8,1.1,0.6L225.3,150.7z"/>
	<path class="st7" d="M223.7,149.5l-1.1-9.1l5.3,2.5l0.9,7.5C229,151.6,224.7,154.2,223.7,149.5z"/>
	<path class="st7" d="M224,148l-1.7,0.1c-2.7,0.2-5-1.9-5.1-4.6l-0.5-8.8c-0.2-2.7,1.9-5,4.6-5.1l1.7-0.1c2.7-0.2,5,1.9,5.1,4.6
		l0.5,8.8C228.8,145.5,226.7,147.8,224,148z"/>
	<path class="st6" d="M223.8,136.4c-1.8,0.9-4.2,1.1-6.2,0.3c-2.2-0.8-3.8-3.3-2.1-5c0.9-0.9,3.3-2,5.3-2.8
		c5.5-2.4,11.5,0.1,11.9,6.5c0,0,0.7,8.7-4.3,10.1l-0.4-1.3c0,0,2-1.9-0.3-3.5c-0.7-0.5-1.4-1.7-1.4-2.8
		C226.3,136.9,224.7,135.9,223.8,136.4z"/>
	<path class="st34" d="M228.4,139.4l-4.5,2.9c-0.1,0.1-0.2,0-0.3-0.1l0,0c-0.1-0.1,0-0.2,0.1-0.3l4.5-2.9c0.1-0.1,0.2,0,0.3,0.1l0,0
		C228.6,139.2,228.5,139.3,228.4,139.4z"/>
	<path class="st7" d="M229.3,143c-0.7,0.7-1.6,0.6-2-0.3c-0.4-0.9-0.2-2.2,0.5-2.9c0.7-0.7,1.6-0.6,2,0.3
		C230.2,141,230,142.3,229.3,143z"/>
	<path class="st15" d="M218.8,143l2.9,1.4c0.1,0.1,0.2,0.2,0.2,0.3c-0.1,0.5-0.5,1.5-2.1,0.8c-1.1-0.5-1.4-1.6-1.5-2.3
		C218.4,143.1,218.6,142.9,218.8,143z"/>
	<path class="st6" d="M222.6,142c0,0.4-0.1,0.7-0.3,0.7c-0.2,0-0.4-0.3-0.4-0.6c0-0.4,0.1-0.7,0.3-0.7
		C222.3,141.4,222.5,141.6,222.6,142z"/>
	<path class="st6" d="M218.9,140.3c0,0.4-0.1,0.7-0.3,0.7c-0.2,0-0.4-0.3-0.4-0.6s0.1-0.7,0.3-0.7
		C218.7,139.7,218.9,139.9,218.9,140.3z"/>
	<g>
		<g>
			<path class="st29" d="M221.9,140.2c0.6,0,1.1,0.3,1.5,0.7c0.3,0.3,0.8-0.2,0.5-0.5c-0.5-0.5-1.2-0.9-2-1
				C221.4,139.5,221.4,140.2,221.9,140.2L221.9,140.2z"/>
		</g>
	</g>
	<g>
		<g>
			<path class="st29" d="M217.8,138.3c0.5,0,1,0.3,1.4,0.6c0.3,0.3,0.8-0.2,0.5-0.5c-0.5-0.5-1.2-0.8-1.9-0.9
				C217.3,137.6,217.3,138.3,217.8,138.3L217.8,138.3z"/>
		</g>
	</g>
	<path class="st12" d="M223.5,148c0.1,0.2,2.7-0.7,2.7-0.9c0,0-1.2,1.7-2.5,2.2L223.5,148z"/>
	<path class="st34" d="M220.3,140.5l-0.6-0.3c-0.2-0.1-0.3-0.2-0.2-0.4l0,0c0.1-0.1,0.2-0.2,0.4-0.1l0.6,0.3
		c0.2,0.1,0.3,0.2,0.2,0.4l0,0C220.7,140.5,220.5,140.6,220.3,140.5z"/>
	<path class="st35" d="M218.4,141.8l-0.8-0.4c-0.6-0.3-1.1-1.3-1.1-2.1l0-0.8c0-0.2,0.1-0.3,0.3-0.2l2.3,1.3
		c0.2,0.1,0.3,0.4,0.3,0.6l0,0.8C219.5,141.8,219,142.1,218.4,141.8z"/>
	<path class="st35" d="M222.4,144l-0.8-0.4c-0.6-0.3-1.1-1.3-1.1-2.1l0-0.8c0-0.2,0.1-0.3,0.3-0.2l2.3,1.3c0.2,0.1,0.3,0.4,0.3,0.6
		l0,0.8C223.4,144,223,144.3,222.4,144z"/>
	<path class="st34" d="M220.7,140.4C220.7,140.4,220.7,140.4,220.7,140.4L220.7,140.4C220.7,140.4,220.7,140.3,220.7,140.4
		c0-0.1,0.1-0.1,0.1-0.1L220.7,140.4C220.6,140.4,220.6,140.4,220.7,140.4C220.6,140.4,220.6,140.4,220.7,140.4c-0.1,0-0.1,0-0.1,0
		l0,0c0,0,0,0,0,0c0,0,0,0,0,0c0,0,0,0,0,0c0,0,0,0,0,0c0,0,0,0,0,0c0,0,0,0,0,0c0,0,0,0,0,0c0,0,0,0,0,0c0,0,0,0,0,0c0,0,0,0,0,0v0
		L220.7,140.4C220.7,140.4,220.7,140.4,220.7,140.4C220.7,140.4,220.7,140.4,220.7,140.4z"/>
	<path class="st34" d="M223.1,143.9C223.1,143.9,223.1,143.9,223.1,143.9C223,143.9,223,143.9,223.1,143.9c-0.1,0-0.1,0-0.2,0
		c0,0,0,0,0,0c0,0-0.1,0-0.1,0c0,0,0,0,0,0c0,0-0.1,0-0.1,0c0,0,0,0,0,0c0,0-0.1,0-0.1,0c0,0,0,0,0,0c0,0-0.1,0-0.1,0c0,0,0,0,0,0
		c0,0-0.1,0-0.1-0.1l-0.6-0.4c0,0-0.1,0-0.1-0.1c0,0,0,0,0,0c0,0-0.1,0-0.1-0.1c0,0,0,0,0,0c0,0-0.1-0.1-0.1-0.1c0,0,0,0,0,0
		c0,0-0.1-0.1-0.1-0.1c0,0,0,0,0,0c0,0-0.1-0.1-0.1-0.1c0,0,0,0,0,0c0,0-0.1-0.1-0.1-0.1c0,0,0,0,0,0c0,0-0.1-0.1-0.1-0.1
		c0,0,0,0,0-0.1c0,0,0,0,0-0.1c0,0,0,0,0,0c0,0,0-0.1-0.1-0.1c0,0,0,0,0,0c0,0,0-0.1-0.1-0.1c0,0,0,0,0,0c0,0,0-0.1-0.1-0.1
		c0,0,0,0,0,0c0,0,0-0.1,0-0.1c0,0,0,0,0,0c0,0,0-0.1,0-0.1c0,0,0,0,0,0c0,0,0-0.1,0-0.1c0,0,0,0,0,0c0,0,0-0.1,0-0.1c0,0,0,0,0,0
		c0,0,0-0.1,0-0.1l0-1l-0.1,0.1l0,1c0,0,0,0,0,0.1c0,0,0,0,0,0.1c0,0,0,0,0,0c0,0,0,0,0,0c0,0,0,0,0,0c0,0,0,0,0,0.1c0,0,0,0,0,0.1
		c0,0,0,0,0,0c0,0,0,0,0,0c0,0,0,0,0,0.1c0,0,0,0,0,0.1c0,0,0,0,0,0c0,0,0,0,0,0c0,0,0,0,0,0c0,0,0,0,0,0.1c0,0,0,0,0,0c0,0,0,0,0,0
		c0,0,0,0,0,0c0,0,0,0,0,0.1c0,0,0,0,0,0.1c0,0,0,0,0,0c0,0,0,0,0,0c0,0,0,0,0,0c0,0,0,0,0,0.1c0,0,0,0,0,0c0,0,0,0,0,0c0,0,0,0,0,0
		c0,0,0,0,0,0.1c0,0,0,0,0,0.1c0,0,0,0,0,0c0,0,0,0,0,0c0,0,0,0,0,0c0,0,0,0,0,0.1c0,0,0,0,0,0c0,0,0,0,0,0c0,0,0,0,0,0
		c0,0,0,0,0,0.1c0,0,0,0,0,0c0,0,0,0.1,0.1,0.1c0,0,0,0,0,0c0,0,0,0,0,0c0,0,0,0,0,0.1c0,0,0,0,0,0.1c0,0,0,0,0,0c0,0,0,0,0,0
		c0,0,0,0,0,0.1c0,0,0,0,0,0c0,0,0,0,0,0c0,0,0,0,0,0c0,0,0,0,0,0c0,0,0,0,0,0c0,0,0,0,0,0c0,0,0,0,0,0c0,0,0,0,0,0c0,0,0,0,0,0
		c0,0,0,0,0,0c0,0,0,0,0,0c0,0,0,0,0,0c0,0,0,0,0,0c0,0,0,0,0,0c0,0,0,0,0,0c0,0,0,0,0,0c0,0,0,0,0,0c0,0,0,0,0,0c0,0,0,0,0,0
		l0.6,0.4c0,0,0,0,0,0c0,0,0,0,0,0c0,0,0,0,0,0c0,0,0,0,0,0c0,0,0,0,0,0c0,0,0,0,0,0c0,0,0,0,0,0c0,0,0,0,0,0c0,0,0,0,0,0
		c0,0,0,0,0,0c0,0,0,0,0,0c0,0,0,0,0,0c0,0,0,0,0,0c0,0,0,0,0,0c0,0,0,0,0,0c0,0,0,0,0,0c0,0,0,0,0,0c0,0,0,0,0,0c0,0,0,0,0.1,0
		c0,0,0,0,0,0c0,0,0,0,0,0c0,0,0,0,0,0c0,0,0,0,0.1,0c0,0,0,0,0,0c0,0,0,0,0,0c0,0,0,0,0.1,0c0,0,0,0,0,0
		C223,144,223,143.9,223.1,143.9L223.1,143.9C223.2,143.9,223.1,143.9,223.1,143.9z"/>
	<path class="st36" d="M223.4,144.2l-0.1,0.1c0.2-0.1,0.4-0.4,0.4-0.9l0.1-0.1C223.8,143.7,223.6,144,223.4,144.2z"/>
	<path class="st34" d="M220.9,140C220.9,140,220.9,140,220.9,140C220.9,140,220.9,140,220.9,140C220.9,140,220.9,140,220.9,140
		C220.8,140,220.8,140,220.9,140C220.8,140,220.8,140,220.9,140C220.8,140,220.8,140,220.9,140c-0.1,0-0.1,0-0.1,0c0,0,0,0,0,0
		c0,0,0,0,0,0c0,0,0,0,0,0c0,0,0,0,0,0c0,0,0,0,0,0c0,0,0,0,0,0c0,0,0,0,0,0c0,0,0,0,0,0c0,0,0,0,0,0c0,0,0,0,0,0l0,0c0,0,0,0,0,0
		c0,0,0,0,0,0c0,0,0,0,0,0l-0.1,0.1c0,0,0,0,0.1,0c0,0,0,0,0,0c0,0,0.1,0,0.1,0c0,0,0,0,0,0c0,0,0.1,0,0.1,0c0,0,0,0,0,0
		c0,0,0.1,0,0.1,0l2.4,1.4l0.1-0.1L220.9,140z"/>
	<path class="st37" d="M223.2,141.5c0.3,0.2,0.5,0.5,0.5,0.8l0,1c0,0.9-0.6,1.2-1.4,0.8l-0.6-0.4c-0.8-0.4-1.4-1.5-1.4-2.4l0-1
		c0-0.3,0.2-0.4,0.5-0.3L223.2,141.5z M223.4,143.2l0-1c0-0.2-0.1-0.3-0.2-0.4l-2.4-1.4c-0.1-0.1-0.2,0-0.2,0.1l0,1
		c0,0.7,0.5,1.6,1.1,1.9l0.6,0.4C222.9,144.2,223.4,143.9,223.4,143.2"/>
	<path class="st36" d="M223.2,141.5l0.1-0.1c0.3,0.2,0.5,0.5,0.5,0.8l-0.1,0.1C223.7,142,223.4,141.6,223.2,141.5z"/>
	<path class="st34" d="M223.8,142.2C223.8,142.2,223.8,142.2,223.8,142.2C223.8,142.2,223.8,142.2,223.8,142.2
		C223.8,142.2,223.8,142.2,223.8,142.2C223.8,142.2,223.8,142.2,223.8,142.2c0-0.1,0-0.1,0-0.1c0,0,0,0,0,0c0,0,0,0,0,0c0,0,0,0,0,0
		c0,0,0,0,0,0c0,0,0,0,0,0c0,0,0,0,0,0c0,0,0,0,0,0c0,0,0,0,0,0c0,0,0,0,0,0c0,0,0,0,0,0c0,0,0,0,0,0c0,0,0,0,0,0c0,0,0,0,0,0
		c0,0,0,0,0-0.1c0,0,0,0,0,0c0,0,0,0,0,0c0,0,0,0,0,0c0,0,0,0,0,0c0,0,0,0,0,0c0,0,0,0,0,0c0,0,0,0,0,0c0,0,0,0,0,0c0,0,0,0,0,0
		c0,0,0,0,0,0c0,0,0,0,0,0c0,0,0,0,0,0c0,0,0,0,0,0c0,0,0,0,0,0c0,0,0,0,0,0l-0.1,0.1c0,0,0,0,0,0c0,0,0,0,0,0c0,0,0,0,0,0
		c0,0,0,0,0,0c0,0,0,0,0,0c0,0,0,0,0,0c0,0,0,0,0,0c0,0,0,0,0,0c0,0,0,0,0,0c0,0,0,0,0,0c0,0,0,0,0,0c0,0,0,0,0,0c0,0,0,0,0,0
		c0,0,0,0,0,0c0,0,0,0,0,0c0,0,0,0,0,0.1c0,0,0,0,0,0c0,0,0,0,0,0c0,0,0,0,0,0c0,0,0,0,0,0c0,0,0,0,0,0c0,0,0,0,0,0c0,0,0,0,0,0
		c0,0,0,0,0,0c0,0,0,0,0,0c0,0,0,0,0,0c0,0,0,0,0,0c0,0,0,0,0,0c0,0,0,0,0,0c0,0,0,0,0,0c0,0,0,0,0,0c0,0,0,0,0,0c0,0,0,0,0,0
		c0,0,0,0,0,0c0,0,0,0,0,0l0,1l0,0.1c0,0,0,0,0,0.1c0,0,0,0,0,0.1c0,0,0,0,0,0.1c0,0,0,0,0,0.1c0,0,0,0,0,0.1c0,0,0,0,0,0.1
		c0,0,0,0.1,0,0.1c0,0,0,0.1-0.1,0.1c-0.1,0.1-0.1,0.2-0.2,0.2l0.1-0.1c0.1-0.1,0.2-0.1,0.2-0.2c0,0,0-0.1,0.1-0.1c0,0,0-0.1,0-0.1
		c0,0,0,0,0-0.1c0,0,0,0,0-0.1c0,0,0,0,0-0.1c0,0,0,0,0-0.1c0,0,0,0,0-0.1c0,0,0,0,0-0.1l0-0.1L223.8,142.2
		C223.8,142.3,223.8,142.2,223.8,142.2z"/>
	<path class="st34" d="M216.7,138.2C216.7,138.2,216.7,138.2,216.7,138.2L216.7,138.2C216.7,138.2,216.7,138.2,216.7,138.2
		c0-0.1,0.1-0.1,0.1-0.1L216.7,138.2C216.6,138.2,216.6,138.2,216.7,138.2C216.6,138.2,216.6,138.2,216.7,138.2c-0.1,0-0.1,0-0.1,0
		c0,0,0,0,0,0c0,0,0,0,0,0c0,0,0,0,0,0c0,0,0,0,0,0c0,0,0,0,0,0c0,0,0,0,0,0c0,0,0,0,0,0c0,0,0,0,0,0c0,0,0,0,0,0c0,0,0,0,0,0
		c0,0,0,0,0,0v0L216.7,138.2C216.7,138.3,216.7,138.3,216.7,138.2C216.7,138.2,216.7,138.2,216.7,138.2z"/>
	<path class="st34" d="M219.2,141.7C219.1,141.7,219.1,141.7,219.2,141.7C219.1,141.7,219.1,141.7,219.2,141.7c-0.1,0-0.1,0-0.2,0
		c0,0,0,0,0,0c0,0-0.1,0-0.1,0c0,0,0,0,0,0c0,0-0.1,0-0.1,0c0,0,0,0,0,0c0,0-0.1,0-0.1,0c0,0,0,0,0,0c0,0-0.1,0-0.1,0c0,0,0,0,0,0
		c0,0-0.1,0-0.1-0.1l-0.6-0.4c0,0-0.1,0-0.1-0.1c0,0,0,0,0,0c0,0-0.1,0-0.1-0.1c0,0,0,0,0,0c0,0-0.1-0.1-0.1-0.1c0,0,0,0,0,0
		c0,0-0.1-0.1-0.1-0.1c0,0,0,0,0,0c0,0-0.1-0.1-0.1-0.1c0,0,0,0,0,0c0,0-0.1-0.1-0.1-0.1c0,0,0,0,0,0c0,0-0.1-0.1-0.1-0.1
		c0,0,0,0,0-0.1c0,0,0,0,0-0.1c0,0,0,0,0,0c0,0,0-0.1-0.1-0.1c0,0,0,0,0,0c0,0,0-0.1-0.1-0.1c0,0,0,0,0,0c0,0,0-0.1-0.1-0.1
		c0,0,0,0,0,0c0,0,0-0.1,0-0.1c0,0,0,0,0,0c0,0,0-0.1,0-0.1c0,0,0,0,0,0c0,0,0-0.1,0-0.1c0,0,0,0,0,0c0,0,0-0.1,0-0.1c0,0,0,0,0,0
		c0,0,0-0.1,0-0.1l0-1l-0.1,0.1l0,1c0,0,0,0,0,0.1c0,0,0,0,0,0.1c0,0,0,0,0,0c0,0,0,0,0,0c0,0,0,0,0,0c0,0,0,0,0,0.1c0,0,0,0,0,0.1
		c0,0,0,0,0,0c0,0,0,0,0,0c0,0,0,0,0,0.1c0,0,0,0,0,0.1c0,0,0,0,0,0c0,0,0,0,0,0c0,0,0,0,0,0c0,0,0,0,0,0.1c0,0,0,0,0,0c0,0,0,0,0,0
		c0,0,0,0,0,0c0,0,0,0,0,0.1c0,0,0,0,0,0.1c0,0,0,0,0,0c0,0,0,0,0,0c0,0,0,0,0,0c0,0,0,0,0,0.1c0,0,0,0,0,0c0,0,0,0,0,0c0,0,0,0,0,0
		c0,0,0,0,0,0.1c0,0,0,0,0,0.1c0,0,0,0,0,0c0,0,0,0,0,0c0,0,0,0,0,0c0,0,0,0,0,0.1c0,0,0,0,0,0c0,0,0,0,0,0c0,0,0,0,0,0
		c0,0,0,0,0,0.1c0,0,0,0,0,0c0,0,0,0.1,0.1,0.1c0,0,0,0,0,0c0,0,0,0,0,0c0,0,0,0,0.1,0.1c0,0,0,0,0,0.1c0,0,0,0,0,0c0,0,0,0,0,0
		c0,0,0,0,0,0.1c0,0,0,0,0,0c0,0,0,0,0,0c0,0,0,0,0,0c0,0,0,0,0,0c0,0,0,0,0,0c0,0,0,0,0,0c0,0,0,0,0,0c0,0,0,0,0,0c0,0,0,0,0,0
		c0,0,0,0,0,0c0,0,0,0,0,0c0,0,0,0,0,0c0,0,0,0,0,0c0,0,0,0,0,0c0,0,0,0,0,0c0,0,0,0,0,0c0,0,0,0,0,0c0,0,0,0,0,0c0,0,0,0,0,0
		l0.6,0.4c0,0,0,0,0,0c0,0,0,0,0,0c0,0,0,0,0,0c0,0,0,0,0,0c0,0,0,0,0,0c0,0,0,0,0,0c0,0,0,0,0,0c0,0,0,0,0,0c0,0,0,0,0,0
		c0,0,0,0,0,0c0,0,0,0,0,0c0,0,0,0,0,0c0,0,0,0,0,0c0,0,0,0,0,0c0,0,0,0,0,0c0,0,0,0,0,0c0,0,0,0,0,0c0,0,0,0,0,0c0,0,0,0,0.1,0
		c0,0,0,0,0,0c0,0,0,0,0,0c0,0,0,0,0,0c0,0,0,0,0.1,0c0,0,0,0,0,0c0,0,0,0,0,0c0,0,0,0,0.1,0c0,0,0,0,0,0
		C219.1,141.8,219.1,141.8,219.2,141.7L219.2,141.7C219.2,141.7,219.2,141.7,219.2,141.7z"/>
	<path class="st36" d="M219.4,142l-0.1,0.1c0.2-0.1,0.4-0.4,0.4-0.9l0.1-0.1C219.8,141.5,219.7,141.8,219.4,142z"/>
	<path class="st34" d="M217,137.9C217,137.9,216.9,137.9,217,137.9C216.9,137.9,216.9,137.9,217,137.9
		C216.9,137.8,216.9,137.8,217,137.9C216.9,137.8,216.9,137.8,217,137.9C216.9,137.8,216.9,137.8,217,137.9
		C216.9,137.8,216.9,137.8,217,137.9c-0.1,0-0.1,0-0.1,0c0,0,0,0,0,0c0,0,0,0,0,0c0,0,0,0,0,0c0,0,0,0,0,0c0,0,0,0,0,0c0,0,0,0,0,0
		c0,0,0,0,0,0c0,0,0,0,0,0c0,0,0,0,0,0c0,0,0,0,0,0c0,0,0,0,0,0c0,0,0,0,0,0c0,0,0,0,0,0c0,0,0,0,0,0l-0.1,0.1c0,0,0,0,0.1,0
		c0,0,0,0,0,0c0,0,0.1,0,0.1,0c0,0,0,0,0,0c0,0,0.1,0,0.1,0c0,0,0,0,0,0c0,0,0.1,0,0.1,0l2.4,1.4l0.1-0.1L217,137.9z"/>
	<path class="st37" d="M219.2,139.3c0.3,0.2,0.5,0.5,0.5,0.8l0,1c0,0.9-0.6,1.2-1.4,0.8l-0.6-0.4c-0.8-0.4-1.4-1.5-1.4-2.4l0-1
		c0-0.3,0.2-0.4,0.5-0.3L219.2,139.3z M219.5,141l0-1c0-0.2-0.1-0.3-0.2-0.4l-2.4-1.4c-0.1-0.1-0.2,0-0.2,0.1l0,1
		c0,0.7,0.5,1.6,1.1,1.9l0.6,0.4C219,142,219.5,141.7,219.5,141"/>
	<path class="st36" d="M219.2,139.3l0.1-0.1c0.3,0.2,0.5,0.5,0.5,0.8l-0.1,0.1C219.7,139.8,219.5,139.5,219.2,139.3z"/>
	<path class="st34" d="M219.8,140.1C219.8,140.1,219.8,140.1,219.8,140.1C219.8,140,219.8,140,219.8,140.1
		C219.8,140,219.8,140,219.8,140.1C219.8,140,219.8,140,219.8,140.1c0-0.1,0-0.1,0-0.1c0,0,0,0,0,0c0,0,0,0,0,0c0,0,0,0,0,0
		c0,0,0,0,0,0c0,0,0,0,0,0c0,0,0,0,0,0c0,0,0,0,0,0c0,0,0,0,0,0c0,0,0,0,0,0c0,0,0,0,0,0c0,0,0,0,0,0c0,0,0,0,0,0c0,0,0,0,0,0
		c0,0,0,0,0-0.1c0,0,0,0,0,0c0,0,0,0,0,0c0,0,0,0,0,0c0,0,0,0,0,0c0,0,0,0,0,0c0,0,0,0,0,0c0,0,0,0,0,0c0,0,0,0,0,0c0,0,0,0,0,0
		c0,0,0,0,0,0c0,0,0,0,0,0c0,0,0,0,0,0c0,0,0,0,0,0c0,0,0,0,0,0c0,0,0,0,0,0l-0.1,0.1c0,0,0,0,0,0c0,0,0,0,0,0c0,0,0,0,0,0
		c0,0,0,0,0,0c0,0,0,0,0,0c0,0,0,0,0,0c0,0,0,0,0,0c0,0,0,0,0,0c0,0,0,0,0,0c0,0,0,0,0,0c0,0,0,0,0,0c0,0,0,0,0,0c0,0,0,0,0,0
		c0,0,0,0,0,0c0,0,0,0,0,0c0,0,0,0,0,0.1c0,0,0,0,0,0c0,0,0,0,0,0c0,0,0,0,0,0c0,0,0,0,0,0c0,0,0,0,0,0c0,0,0,0,0,0c0,0,0,0,0,0
		c0,0,0,0,0,0c0,0,0,0,0,0c0,0,0,0,0,0c0,0,0,0,0,0c0,0,0,0,0,0c0,0,0,0,0,0c0,0,0,0,0,0c0,0,0,0,0,0c0,0,0,0,0,0c0,0,0,0,0,0
		c0,0,0,0,0,0c0,0,0,0,0,0l0,1l0,0.1c0,0,0,0,0,0.1c0,0,0,0,0,0.1c0,0,0,0,0,0.1c0,0,0,0,0,0.1c0,0,0,0,0,0.1c0,0,0,0,0,0.1
		c0,0,0,0.1,0,0.1c0,0,0,0.1-0.1,0.1c-0.1,0.1-0.1,0.2-0.2,0.2l0.1-0.1c0.1-0.1,0.2-0.1,0.2-0.2c0,0,0-0.1,0.1-0.1c0,0,0-0.1,0-0.1
		c0,0,0,0,0-0.1c0,0,0,0,0-0.1c0,0,0,0,0-0.1c0,0,0,0,0-0.1c0,0,0,0,0-0.1c0,0,0,0,0-0.1l0-0.1L219.8,140.1
		C219.8,140.1,219.8,140.1,219.8,140.1z"/>
	<path class="st37" d="M216.7,138.2l-0.3-0.1c-0.1,0-0.2-0.1-0.1-0.2l0,0c0-0.1,0.1-0.1,0.2,0l0.3,0.1c0.1,0,0.2,0.1,0.1,0.2l0,0
		C216.9,138.2,216.8,138.2,216.7,138.2z"/>
	<path class="st37" d="M223.8,142.1l-0.3-0.1c-0.1,0-0.2-0.1-0.1-0.2l0,0c0-0.1,0.1-0.1,0.2,0l0.3,0.1c0.1,0,0.2,0.1,0.1,0.2l0,0
		C224,142.1,223.9,142.2,223.8,142.1z"/>
	<path class="st33" d="M223.9,150.4c0,0,2.8,1.3,6.2-2.4l1.6,2.6c0.1,0.4,0.1,0.4-0.2,0.7l-4.3,3.7c-0.5,0.4-1.3,0.3-1.6-0.3
		L223.9,150.4z"/>
	<path class="st17" d="M223.8,150.3c0,0,0.7,0.3,1.4,0.3l1.9,4.4l-0.1,0.1c-0.4,0.4-1.1,0.2-1.3-0.2L223.8,150.3z"/>
	<path class="st13" d="M221.5,186.6l0-0.6l-0.8,0.3l-0.2-0.4l-20.9-12.1c-0.3-0.1-0.7-0.1-1,0l-9,5.2v-0.1l-1.7,0.7v0.7h0
		c0,0.1,0.1,0.1,0.2,0.2l21.8,12.6c0.3,0.1,0.7,0.1,1,0l10.4-6C221.4,186.8,221.5,186.7,221.5,186.6L221.5,186.6z"/>
	<path class="st24" d="M209.9,192.3l-21.8-12.6c-0.3-0.1-0.2-0.4,0.1-0.6l10.4-6c0.3-0.2,0.7-0.2,1,0l21.8,12.6
		c0.3,0.1,0.2,0.4-0.1,0.6l-10.4,6C210.5,192.4,210.1,192.4,209.9,192.3z"/>
	<path class="st13" d="M211.3,184.2l-5.3-3c-0.1,0-0.1-0.1,0-0.1l2.5-1.5c0.1,0,0.2,0,0.2,0l5.3,3c0.1,0,0.1,0.1,0,0.1l-2.5,1.5
		C211.5,184.2,211.4,184.2,211.3,184.2z"/>
	<path class="st15" d="M209.3,178.1c-0.1-0.6-0.5-1.3-1-1.5l-21.6-12.3c-0.2-0.1-0.4-0.1-0.5-0.1l0,0l0,0c0,0-0.1,0-0.1,0.1
		l-0.7,0.8l0.7-0.1l2.1,13.3c0.1,0.6,0.5,1.3,1,1.5l20.4,11.6l0.7,0.7l0.1,0.2c0.4,0.1,1.4-0.6,1.4-0.6L209.3,178.1z"/>
	<path class="st38" d="M209.9,192.9l-21.6-12.3c-0.5-0.3-0.9-0.9-1-1.5l-2.1-13.4c-0.1-0.6,0.2-0.8,0.7-0.6l21.6,12.3
		c0.5,0.3,0.9,0.9,1,1.5l2.1,13.4C210.7,192.9,210.4,193.2,209.9,192.9z"/>
	<path class="st15" d="M198.4,179.9c0.1,0.7-0.5,0.9-1.4,0.4c-0.9-0.5-1.7-1.5-1.8-2.2c-0.1-0.7,0.5-0.9,1.4-0.4
		C197.5,178.2,198.3,179.2,198.4,179.9z"/>
	<path class="st7" d="M211.7,186.9L211.7,186.9c-0.2-1.4,0.7-2.7,2.1-2.9l4.7-0.8c1.4-0.2,2.7,0.7,2.9,2.1l0,0
		c0.2,1.4-0.7,2.7-2.1,2.9l-4.7,0.8C213.2,189.2,211.9,188.2,211.7,186.9z"/>
	
		<ellipse transform="matrix(5.424527e-03 -1 1 5.424527e-03 27.8035 517.7657)" class="st1" cx="274.2" cy="244.9" rx="6.9" ry="12"/>
	
		<ellipse transform="matrix(5.422612e-03 -1 1 5.422612e-03 24.3822 511.9138)" class="st39" cx="269.5" cy="243.7" rx="4.2" ry="7.3"/>
	<polygon class="st39" points="258.8,233.5 262.3,244 276.8,244.2 280.1,234.1 	"/>
	<path class="st40" d="M276,234.1l-3.3,10.4h0c-0.2,0.6-0.9,1.6-2.1,2.3c-0.9,0.5-1.9,0.8-3,1c2.5,0.4,5.2,0.1,7.1-1
		c1.2-0.7,1.9-1.7,2.1-2.4h0l3.3-10.4H276z"/>
	
		<ellipse transform="matrix(5.420457e-03 -1 1 5.420457e-03 35.2878 501.0682)" class="st41" cx="269.5" cy="232.8" rx="6.2" ry="10.8"/>
	
		<ellipse transform="matrix(5.426215e-03 -1 1 5.426215e-03 35.4133 500.7923)" class="st42" cx="269.5" cy="232.6" rx="5.3" ry="9.3"/>
	<g>
		<path class="st43" d="M262.4,230.5L262.4,230.5c-0.4-0.6-0.8-1.2-0.9-2c-0.1-0.7,0.3-1.6,0.9-1.9c0.8-0.4,1.7,0.1,2.3,0.7
			c0.6,0.6,1,1.4,1.7,1.9c-0.8-2.7-1.7-5.3-2.5-8c-0.3-0.8-0.5-1.7-0.3-2.5c0.2-0.8,0.9-1.6,1.8-1.5c1.6,0.3,1.4,3,2.8,3.8
			c-1-2-1.8-4.1-2.1-6.3c-0.2-1.3-0.3-2.7,0.3-3.8c0.6-1.2,2-2,3.2-1.5c1.5,0.6,1.8,2.5,1.9,4.2c0.1,2.1,0.1,4.2,0.2,6.2
			c0.5-2.1,1.3-4.5,3.3-5.2c0.6,2.8,0.1,5.9-1.2,8.5c0.5-0.9,1.6-1.6,2.7-1.6c0.5,2.9-0.5,6-2.6,8.1c0.6-0.6,1.2-1.3,1.7-1.9
			c0.5,2-0.2,4.3-1.7,5.7C270.2,236.5,264.9,233.7,262.4,230.5z"/>
	</g>
	<path class="st13" d="M158.6,159.6c-1.7,1-4.5,1-6.2,0c-1.7-1-1.7-2.6,0-3.6c1.7-1,4.5-1,6.2,0C160.3,157,160.3,158.6,158.6,159.6z
		"/>
	
		<ellipse transform="matrix(5.413841e-03 -1 1 5.413841e-03 -4.3346 309.3951)" class="st5" cx="153.4" cy="156.9" rx="2.5" ry="4.4"/>
	<rect x="149" y="149.9" class="st5" width="8.7" height="7"/>
	<path class="st44" d="M155.2,149.8l0,7h0c0,0.6-0.4,1.3-1.3,1.8c-0.5,0.3-1.1,0.5-1.8,0.6c1.5,0.3,3.2,0.1,4.4-0.6
		c0.9-0.5,1.3-1.1,1.3-1.8h0l0-7H155.2z"/>
	<path class="st45" d="M156.5,151.7c-1.7,1-4.5,1-6.2,0c-1.7-1-1.7-2.6,0-3.6c1.7-1,4.5-1,6.2,0
		C158.2,149.1,158.2,150.7,156.5,151.7z"/>
	<path class="st46" d="M156,151.3c-1.4,0.8-3.7,0.8-5.1,0s-1.4-2.1,0-2.9c1.4-0.8,3.7-0.8,5.1,0C157.3,149.2,157.4,150.5,156,151.3z
		"/>
	<path class="st47" d="M155.9,149.6c-1.4-0.8-3.7-0.8-5.1,0c-0.4,0.2-0.7,0.5-0.9,0.8c0.2,0.3,0.5,0.6,0.9,0.8
		c1.4,0.8,3.7,0.8,5.1,0c0.4-0.2,0.7-0.5,0.9-0.8C156.7,150.2,156.4,149.9,155.9,149.6z"/>
	<path class="st48" d="M150.8,151.3c-0.4-0.2-0.7-0.5-0.9-0.8c0.1-0.2,0.2-0.3,0.4-0.5c1.2-0.2,2.6,0,3.5,0.5
		c0.4,0.2,0.7,0.5,0.9,0.8c0.1,0.1,0.1,0.3,0.2,0.4c-0.2,0.1-0.4,0.1-0.6,0.1C153.2,152,151.8,151.9,150.8,151.3z"/>
	<g>
		<g>
			<path class="st38" d="M156.1,153.1c0.5,0.3,1.2,0.5,1.4,1.1c0.1,0.5,0,1.2,0,1.7c0,0.3,0,0.5,0,0.8c0,0.1,0,0.2,0,0.3
				c0.2,0.2,0.2,0.3,0,0.2c-0.2,0-0.7-0.3-0.9-0.4c-0.6-0.3-1.2,0.6-0.6,1c0.5,0.2,1.1,0.7,1.7,0.7c0.8-0.1,0.9-0.9,0.9-1.5
				c0-1,0.2-2.1-0.1-3.1c-0.2-0.9-1.2-1.3-1.9-1.6C156,151.8,155.4,152.8,156.1,153.1L156.1,153.1z"/>
		</g>
	</g>
	<polygon class="st15" points="129.7,154.5 116.9,147.2 135.7,136.4 148.4,143.7 	"/>
	<polygon class="st49" points="116.9,150.3 116.9,147.2 129.7,154.5 148.4,143.7 148.4,146.8 129.7,157.6 	"/>
	<polygon class="st50" points="116.9,150.3 116.9,147.2 129.7,154.5 129.7,157.6 	"/>
	<path class="st51" d="M116.9,148.2l-0.8,0.5c-0.2,0.1-0.2,0.4,0,0.5l0.8,0.5V148.2z"/>
	<path class="st13" d="M127.4,154.8l2.1,1.2c0.1,0.1,0.3,0.1,0.4,0l3.5-2.1l-3.6,1.8c-0.1,0.1-0.3,0.1-0.4,0L127.4,154.8z"/>
	<path class="st13" d="M124.8,149.2l-3.5-2c-0.2-0.1-0.2-0.4,0.1-0.5l0,0c0.3-0.2,0.7-0.2,0.9,0l3.5,2c0.2,0.1,0.2,0.4-0.1,0.5l0,0
		C125.5,149.3,125.1,149.4,124.8,149.2z"/>
	<path class="st13" d="M142.8,145.5l-9.8-5.7c-0.1-0.1-0.1-0.2,0-0.3l0,0c0.1-0.1,0.3-0.1,0.4,0l9.8,5.7c0.1,0.1,0.1,0.2,0,0.3l0,0
		C143.1,145.6,142.9,145.6,142.8,145.5z"/>
	<path class="st13" d="M140.4,146.9l-9.8-5.7c-0.1-0.1-0.1-0.2,0-0.3l0,0c0.1-0.1,0.3-0.1,0.4,0l9.8,5.7c0.1,0.1,0.1,0.2,0,0.3l0,0
		C140.8,146.9,140.6,146.9,140.4,146.9z"/>
	<path class="st13" d="M138.1,148.2l-9.8-5.7c-0.1-0.1-0.1-0.2,0-0.3l0,0c0.1-0.1,0.3-0.1,0.4,0l9.8,5.7c0.1,0.1,0.1,0.2,0,0.3l0,0
		C138.4,148.3,138.2,148.3,138.1,148.2z"/>
	<path class="st13" d="M135.8,149.6l-9.8-5.7c-0.1-0.1-0.1-0.2,0-0.3l0,0c0.1-0.1,0.3-0.1,0.4,0l9.8,5.7c0.1,0.1,0.1,0.2,0,0.3l0,0
		C136.1,149.6,135.9,149.6,135.8,149.6z"/>
	<path class="st13" d="M133.4,150.9l-9.8-5.7c-0.1-0.1-0.1-0.2,0-0.3l0,0c0.1-0.1,0.3-0.1,0.4,0l9.8,5.7c0.1,0.1,0.1,0.2,0,0.3l0,0
		C133.8,151,133.6,151,133.4,150.9z"/>
	<path class="st52" d="M158.5,236.1l-24.3-14c-2.3-1.3-1.3-4.2,2-6.3l8.7-5.7c3.4-2.2,17-3.7,19.3-2.4l15.2,9.4
		c2.3,1.3,1.4,9.6-2,11.8l-8.7,5.7C165.4,236.7,160.8,237.4,158.5,236.1z"/>
	<path class="st53" d="M167.9,202l-13.2-7.5c-0.2-0.1-0.2-0.3,0-0.4l18-10.6c0.1,0,0.2,0,0.2,0l13.2,7.5c0.2,0.1,0.2,0.3,0,0.4
		l-18,10.6C168,202,168,202,167.9,202z"/>
	
		<rect x="154.5" y="193.6" transform="matrix(1 -7.820372e-03 7.820372e-03 1 -1.5122 1.2163)" class="st53" width="0.4" height="0.7"/>
	
		<rect x="185.8" y="190.7" transform="matrix(1 -7.842897e-03 7.842897e-03 1 -1.4919 1.4653)" class="st53" width="0.7" height="0.4"/>
	<path class="st54" d="M167.9,201.5l-13.2-7.5c-0.2-0.1-0.2-0.3,0-0.4l18-10.6c0.1,0,0.2,0,0.2,0l13.2,7.5c0.2,0.1,0.2,0.3,0,0.4
		l-18,10.6C168,201.5,168,201.6,167.9,201.5z"/>
	<path class="st53" d="M181.1,209.4l-13.2-7.5c-0.2-0.1-0.2-0.3,0-0.4l18-10.6c0.1,0,0.2,0,0.2,0l13.2,7.5c0.2,0.1,0.2,0.3,0,0.4
		l-18,10.6C181.3,209.5,181.2,209.5,181.1,209.4z"/>
	
		<rect x="167.9" y="201.3" transform="matrix(1 -7.819830e-03 7.819830e-03 1 -1.5706 1.3208)" class="st53" width="0.4" height="0.4"/>
	
		<rect x="198.9" y="198.2" transform="matrix(1 -7.842897e-03 7.842897e-03 1 -1.5489 1.5685)" class="st53" width="0.7" height="0.2"/>
	<path class="st54" d="M181.1,209l-13.2-7.5c-0.2-0.1-0.2-0.3,0-0.4l18-10.6c0.1,0,0.2,0,0.2,0l13.2,7.5c0.2,0.1,0.2,0.3,0,0.4
		l-18,10.6C181.3,209,181.2,209,181.1,209z"/>
	<path class="st53" d="M159.2,195.2l8.6,5.5l5.2-4.2C173,196.5,162.9,192.5,159.2,195.2z"/>
	
		<linearGradient id="SVGID_1_" gradientUnits="userSpaceOnUse" x1="207.2953" y1="196.4366" x2="201.2199" y2="185.9137" gradientTransform="matrix(1 -7.800000e-03 7.800000e-03 1 -35.3549 2.4695)">
		<stop  offset="2.000000e-08" style="stop-color:#9FB0BF"/>
		<stop  offset="0.2542" style="stop-color:#A3B3C2"/>
		<stop  offset="0.4956" style="stop-color:#AEBDCB"/>
		<stop  offset="0.732" style="stop-color:#C1CEDB"/>
		<stop  offset="0.964" style="stop-color:#DCE6F0"/>
		<stop  offset="1" style="stop-color:#E1EAF4"/>
	</linearGradient>
	<path class="st55" d="M167.9,200.5c-0.8-2.8-5.9-3.9-11.9-6.7c-0.2-0.1-0.2-0.3,0-0.4l15.9-9.4c0.2-0.1,0.6-0.1,0.7,0
		c7.3,2.1,11.9,4.3,11.9,6.7L167.9,200.5z"/>
	
		<linearGradient id="SVGID_2_" gradientUnits="userSpaceOnUse" x1="175.2122" y1="208.4901" x2="168.6836" y2="197.1821" gradientTransform="matrix(0.8827 3.430000e-02 -5.980000e-02 1.0243 31.6937 -22.4135)">
		<stop  offset="2.000000e-08" style="stop-color:#9FB0BF"/>
		<stop  offset="2.195468e-02" style="stop-color:#A9B8C6"/>
		<stop  offset="9.211858e-02" style="stop-color:#C4CED7"/>
		<stop  offset="0.1727" style="stop-color:#DAE0E6"/>
		<stop  offset="0.2668" style="stop-color:#EBEEF1"/>
		<stop  offset="0.3832" style="stop-color:#F6F8F9"/>
		<stop  offset="0.5466" style="stop-color:#FDFDFE"/>
		<stop  offset="1" style="stop-color:#FFFFFF"/>
	</linearGradient>
	<path class="st56" d="M167.9,200.5c0.5-3.3-4.7-4.9-10-8.2c-0.2-0.1-0.1-0.3,0.1-0.5l15.4-9.4c0.2-0.1,0.5-0.1,0.7,0
		c6.7,2.6,10.8,5.5,10.5,8.1L167.9,200.5z"/>
	<path class="st57" d="M180.7,187.3l-5.7-3.6c-0.1,0-0.1-0.1,0-0.2l0,0c0.1,0,0.2,0,0.3,0l5.7,3.6c0.1,0,0.1,0.1,0,0.2l0,0
		C180.9,187.3,180.8,187.3,180.7,187.3z"/>
	<path class="st57" d="M178.8,188.5l-5.7-3.6c-0.1,0-0.1-0.1,0-0.2l0,0c0.1,0,0.2,0,0.3,0l5.7,3.6c0.1,0,0.1,0.1,0,0.2l0,0
		C179,188.6,178.9,188.6,178.8,188.5z"/>
	<path class="st57" d="M177,189.7l-5.7-3.6c-0.1,0-0.1-0.1,0-0.2l0,0c0.1,0,0.2,0,0.3,0l5.7,3.6c0.1,0,0.1,0.1,0,0.2l0,0
		C177.2,189.8,177.1,189.8,177,189.7z"/>
	<path class="st57" d="M175.1,190.9l-5.7-3.6c-0.1,0-0.1-0.1,0-0.2l0,0c0.1,0,0.2,0,0.3,0l5.7,3.6c0.1,0,0.1,0.1,0,0.2l0,0
		C175.3,191,175.2,191,175.1,190.9z"/>
	<path class="st57" d="M173.3,192.2l-5.7-3.6c-0.1,0-0.1-0.1,0-0.2l0,0c0.1,0,0.2,0,0.3,0l5.7,3.6c0.1,0,0.1,0.1,0,0.2l0,0
		C173.5,192.2,173.4,192.2,173.3,192.2z"/>
	<path class="st57" d="M171.4,193.8l-5.7-3.6c-0.1,0-0.1-0.1,0-0.2l0,0c0.1,0,0.2,0,0.3,0l5.7,3.6c0.1,0,0.1,0.1,0,0.2l0,0
		C171.6,193.9,171.5,193.9,171.4,193.8z"/>
	<path class="st57" d="M169.5,195.1l-5.7-3.6c-0.1,0-0.1-0.1,0-0.2l0,0c0.1,0,0.2,0,0.3,0l5.7,3.6c0.1,0,0.1,0.1,0,0.2l0,0
		C169.7,195.1,169.6,195.1,169.5,195.1z"/>
	<path class="st57" d="M167.7,196.3l-5.7-3.6c-0.1,0-0.1-0.1,0-0.2l0,0c0.1,0,0.2,0,0.3,0l5.7,3.6c0.1,0,0.1,0.1,0,0.2l0,0
		C167.9,196.3,167.8,196.3,167.7,196.3z"/>
	<path class="st53" d="M167.9,200.7l7,3.3C174.9,204,169.9,198.4,167.9,200.7z"/>
	<path class="st15" d="M167.9,200.5c0,0,1.6-0.6,2.9,0.5c1.3,1.1,9.7,7.3,9.7,7.3l16.9-9.8c0,0-9.1-8.7-12.8-7.7L167.9,200.5z"/>
	<path class="st57" d="M192.2,196.2l-5.6-3.7c-0.1,0-0.1-0.1,0-0.2l0,0c0.1,0,0.2,0,0.3,0l5.6,3.7c0.1,0,0.1,0.1,0,0.2l0,0
		C192.4,196.2,192.3,196.2,192.2,196.2z"/>
	<path class="st57" d="M190.3,197.3l-5.6-3.7c-0.1,0-0.1-0.1,0-0.2l0,0c0.1,0,0.2,0,0.3,0l5.6,3.7c0.1,0,0.1,0.1,0,0.2l0,0
		C190.5,197.4,190.4,197.4,190.3,197.3z"/>
	<path class="st57" d="M188.5,198.5l-5.6-3.7c-0.1,0-0.1-0.1,0-0.2l0,0c0.1,0,0.2,0,0.3,0l5.6,3.7c0.1,0,0.1,0.1,0,0.2l0,0
		C188.7,198.6,188.5,198.6,188.5,198.5z"/>
	<path class="st57" d="M186.6,199.7L181,196c-0.1,0-0.1-0.1,0-0.2l0,0c0.1,0,0.2,0,0.3,0l5.6,3.7c0.1,0,0.1,0.1,0,0.2l0,0
		C186.8,199.7,186.6,199.7,186.6,199.7z"/>
	<path class="st57" d="M184.7,200.9l-5.6-3.7c-0.1,0-0.1-0.1,0-0.2l0,0c0.1,0,0.2,0,0.3,0l5.6,3.7c0.1,0,0.1,0.1,0,0.2l0,0
		C184.9,200.9,184.8,200.9,184.7,200.9z"/>
	<path class="st57" d="M182.8,202.5l-5.6-3.7c-0.1,0-0.1-0.1,0-0.2l0,0c0.1,0,0.2,0,0.3,0l5.6,3.7c0.1,0,0.1,0.1,0,0.2l0,0
		C183,202.5,182.8,202.5,182.8,202.5z"/>
	<path class="st57" d="M180.9,203.7l-5.6-3.7c-0.1,0-0.1-0.1,0-0.2l0,0c0.1,0,0.2,0,0.3,0l5.6,3.7c0.1,0,0.1,0.1,0,0.2l0,0
		C181.1,203.7,181,203.7,180.9,203.7z"/>
	<path class="st57" d="M179,204.8l-5.6-3.7c-0.1,0-0.1-0.1,0-0.2l0,0c0.1,0,0.2,0,0.3,0l5.6,3.7c0.1,0,0.1,0.1,0,0.2l0,0
		C179.2,204.9,179.1,204.9,179,204.8z"/>
	<path class="st22" d="M175,237.7c-0.1,0.1-2.3,1.1-2.4,1.2c-0.2,0.2-0.8,0.6-1.2,0.9c-0.8,0.5-2.5,2.5-5.1,0.9
		c-3.7-2.4,5.8-8,5.8-8l4.2-1.9c0.5-0.2,1.1-0.2,1.6,0.1l0,0c0.9,0.5,1.2,1.7,0.7,2.6C177.6,234.9,177.5,235.8,175,237.7z"/>
	<path class="st58" d="M174.7,236.5c-0.1,0.1-2.3,1.1-2.4,1.2c-0.2,0.2-0.8,0.6-1.2,0.9c-0.8,0.5-2.5,2.5-5.1,0.9
		c-3.7-2.4,5.8-8,5.8-8l4.2-1.9c0.5-0.2,1.1-0.2,1.6,0.1h0c0.9,0.5,1.2,1.7,0.7,2.6C177.2,233.7,177.1,234.6,174.7,236.5z"/>
	<path class="st59" d="M177.4,233.7c0.2-0.4,0.6-1.2,0.9-1.6c0.6-0.9,0.2-2-0.7-2.5c-0.5-0.3-1.1-0.3-1.6-0.1l-2,0.9
		C175,230.9,176.3,232,177.4,233.7z"/>
	<g>
		<g>
			<path class="st60" d="M158.3,223c3.1-2.1,6.5-4.7,10-5.9c0.3-0.1,0.6-0.2,0.9-0.3c0.5-0.1,0.5-0.1,0.1,0c0.4,0,0.4,0-0.1-0.1
				c-0.1-0.1-0.3-0.1-0.4-0.2c-0.4-0.3-0.7-0.8-0.6-0.8c0.1,0,0.2,1.2,0.2,0.7c0.1,1,0.2,4.5,0.1,5.1c-1.2,4.2-3.3,7.5-3.6,11.9
				c-0.4,4.6,6.8,4.6,7.2,0c0.4-4.6,3.7-8.3,3.7-12.9c0-2.6,0.2-5.6-1.1-8c-4.2-7.7-15.7,1.4-19.9,4.2
				C150.9,219.4,154.5,225.6,158.3,223L158.3,223z"/>
		</g>
	</g>
	<path class="st24" d="M171.4,232.8c-1.6,1.2-4.7,0.9-5.8-0.9c-0.1,0.9-0.1,1.8-0.2,2.8c-0.1,3.8,5.7,4.1,5.9,0.3
		C171.3,234.2,171.4,233.5,171.4,232.8z"/>
	<path class="st61" d="M164.1,231.2l-0.1,2.6c0,0.1,0,0.2,0.1,0.3c0.4,0.6,1.8,2.4,4.6,2.1c2.5-0.3,3.8-1,4.4-1.3
		c0.2-0.1,0.3-0.3,0.2-0.5l-0.1-2.7c0-0.4-0.4-0.6-0.8-0.5c-1.3,0.7-4.1,1.6-7.5-0.5C164.6,230.6,164.1,230.8,164.1,231.2z"/>
	<g>
		<path class="st62" d="M152.5,219L152.5,219c0.3,0.7-1-2.6-0.5-2.1c1.1,1.2,7,8.5,8.5,9c1.9,0.6-3-3.7-3-3.7s15.5-9,15.2-9.5
			c-2.5-3.5-5-4.6-9.9-2.7C157.3,212.2,150.9,215.7,152.5,219z"/>
	</g>
	<path class="st22" d="M184.5,243c-0.2,0.1-2.3,1-2.5,1.1c-0.2,0.2-0.9,0.6-1.2,0.8c-0.8,0.5-2.6,2.4-5.1,0.7
		c-3.7-2.5,6.1-7.8,6.1-7.8l4.2-1.8c0.5-0.2,1.1-0.2,1.6,0.1l0,0c0.9,0.6,1.2,1.8,0.6,2.6C187.1,240.3,187,241.2,184.5,243z"/>
	<path class="st58" d="M184.1,241.8c-0.2,0.1-2.3,1-2.5,1.1c-0.2,0.2-0.9,0.6-1.2,0.8c-0.8,0.5-2.6,2.4-5.1,0.7
		c-3.7-2.5,6.1-7.8,6.1-7.8l4.2-1.8c0.5-0.2,1.1-0.2,1.6,0.1l0,0c0.9,0.6,1.2,1.8,0.6,2.6C186.8,239.1,186.7,240,184.1,241.8z"/>
	<path class="st59" d="M186.9,239.1c0.2-0.4,0.6-1.1,0.9-1.6c0.6-0.8,0.3-2-0.6-2.5c-0.5-0.3-1.1-0.4-1.6-0.1l-2.1,0.9
		C184.7,236.2,186,237.4,186.9,239.1z"/>
	<g>
		<g>
			<path class="st60" d="M165.1,227.7c3.2-2.3,6.4-5,10-6.7c-0.1,0.1,1-0.4,1-0.4c0.2-0.4,0.2,0.1-0.7-0.4c-1.1-0.6-0.8-1-0.7,0.5
				c0.2,5.9,0.2,12-0.2,17.8c-0.3,4.6,6.9,4.6,7.2,0c0.3-4.5,0.2-9,0.2-13.5c0-2.9,0.6-6.2-0.8-8.8c-4.1-8-15.6,2.4-19.5,5.2
				C157.8,224.2,161.4,230.4,165.1,227.7L165.1,227.7z"/>
		</g>
	</g>
	<path class="st24" d="M181,238c-1.6,1.2-4.8,0.7-5.8-1c-0.1,0.9-0.2,1.8-0.2,2.8c-0.2,3.8,5.6,4.3,5.8,0.5
		C180.9,239.4,180.9,238.7,181,238z"/>
	<path class="st61" d="M173.8,236.2l-0.2,2.6c0,0.1,0,0.2,0.1,0.3c0.3,0.6,1.7,2.5,4.6,2.2c2.5-0.2,3.9-0.9,4.4-1.2
		c0.2-0.1,0.3-0.3,0.3-0.5l0-2.7c0-0.4-0.4-0.7-0.8-0.5c-1.3,0.6-4.2,1.5-7.5-0.7C174.3,235.5,173.8,235.8,173.8,236.2z"/>
	<path class="st2" d="M178.2,250.3L178.2,250.3c0.6-0.1,1-0.6,0.9-1.1l-3.8-25.4c-0.1-0.5-0.6-0.9-1.1-0.8l-0.1,0
		c-0.5,0.1-0.9,0.6-0.8,1.1l3.8,25.4C177.1,250,177.6,250.4,178.2,250.3z"/>
	<path class="st2" d="M130.5,251.9L130.5,251.9c-0.5-0.1-0.9-0.6-0.8-1.1l4.6-30.9c0.1-0.5,0.6-0.9,1.1-0.8l0,0
		c0.5,0.1,0.9,0.6,0.8,1.1l-4.6,30.9C131.5,251.7,131,252,130.5,251.9z"/>
	<path class="st2" d="M152.9,265.1L152.9,265.1c-0.6-0.1-1-0.6-0.9-1.2l5.3-36c0.1-0.6,0.6-1,1.2-0.9l0,0c0.6,0.1,1,0.6,0.9,1.2
		l-5.3,36C154,264.8,153.5,265.2,152.9,265.1z"/>
	<path class="st5" d="M157.2,239.5l-21.5-12.4c-2.3-1.3-3.6-4-3.6-4c-0.9-2,1.2-3.4,3.5-2.1l22.6,13.3c2.3,1.3,3.2,2.7,2.8,4.4
		C161.1,238.7,160.1,241,157.2,239.5z"/>
	<path class="st13" d="M142.5,186.5c-1.5,1.6-1.4,2.7-1.6,4.9c-0.2,2.2,1.1,4.2,3.3,4.9l21,7c0,0,5.9-8.2-1-11.1
		c-3.6-1.5-6-3.7-8.7-5.5C151.5,184,146,182.8,142.5,186.5z"/>
	<path class="st13" d="M140.5,222.5c-1.4-0.5-1-20,0.6-33.3l24.6,11.2c-2.2,11.5-2.2,20.3-1.2,34L140.5,222.5z"/>
	<path class="st9" d="M165.8,200.4l-4.1-1.8c-2.5,11.7-3,20.2-1.2,33.4l-0.1,0c0,0.8-0.6,1.6-1.7,2.3v0c-2,1.2,0.9,1.8,2.9,0.6
		l5.2-10.3C165.8,213.3,163,215.7,165.8,200.4z"/>
	<path class="st5" d="M179.1,228.8L162,239.3c-2.8,1.7-4.9,0.9-4.8-1.8l0.1-2.6c0.2-2.7,2.6-6.3,5.3-8l17.1-10.5
		c2.8-1.7,4.9-0.9,4.8,1.8l-0.1,2.6C184.3,223.5,181.9,227.1,179.1,228.8z"/>
	<path class="st5" d="M131.9,222l-2.7-24c-0.5-3.5,2.5-4.4,6.6-2.1l16.3,9.5c2.9,1.7,5.6,4.7,6.7,7.5l6.2,15.5
		c1.8,4.5-4.2,11.7-8.3,9.3L131.9,222z"/>
	<g>
		<g>
			<path class="st7" d="M164.1,199.9c2.7,2.1,5,5,7.9,6.8c2,1.3,5.3,1.8,7.2,0.1c5.4-4.7-7.3-12.1-10.2-13.6c-2.7-1.3-5,2.7-2.3,4
				c2.5,1.3,5,2.8,7.1,4.7c0.6,0.5,1.2,1.8,1.8,2.2c0.1,0.1,1,2.5,0.5-0.7c-0.1-0.6,0.7,0.1-0.3-0.2c-1.4-0.4-2.2-1-3.3-2.1
				c-1.9-1.9-3.9-3.6-6.1-5.3C164.1,194.1,161.8,198.1,164.1,199.9L164.1,199.9z"/>
		</g>
	</g>
	<path class="st13" d="M161.7,199.1l9.5,7.8c3,1.9,6.3-3.7,4-5.5l-9.3-8.2c-1.5-1.1-3.5-0.9-4.4,0.4l0,0
		C160.4,195,160.3,197.8,161.7,199.1z"/>
	<path class="st7" d="M153.5,188.1l0.5-7.9l5.1,2.4l-0.3,7.1C158.9,190.8,153.6,190.7,153.5,188.1z"/>
	<path class="st7" d="M160.2,167.7c0,0,4.4-0.1,3.9,7.8c-0.3,5.5-3.5,7.2-8.2,9.1c-2.9,1.1-6.2-0.8-6.2-3.6c-0.4-4-0.1-7.8,1.4-10.9
		c0-3.3,2.2-2,6.2-1.9L160.2,167.7z"/>
	<path class="st21" d="M160.5,183.7c0,0,5.6-1.6,5.6-9.3c0-8.3-7.6-8.1-11.8-8.8c-1.9-0.3-3.1-0.7-5.2,0.9c-1.8,1.4-0.5,5,2,5.4
		c1,0.2,0.3,2.8,0.5,3.7c0.2,1.6,1.2,2.5,1.5,4.1c0.3,1.5,2.3,4,3.7,4.3C159.2,184.5,160.5,183.7,160.5,183.7z"/>
	<path class="st7" d="M151.4,178.5c-0.2,1.3,0.4,2.5,1.3,2.6c0.1,0,0.2,0,0.3,0c0.8-0.1,1.6-0.9,1.7-2.1c0.2-1.3-0.4-2.5-1.3-2.6
		C152.5,176.3,151.6,177.2,151.4,178.5z"/>
	<path class="st15" d="M161.1,190.6c-5.6-1.1-9.9,2.3-10.4-6l0,0c0.9-0.5,1.9-0.2,2.4,0.7c0.8,1.5,2.8,2.4,5.2,2.3
		c0.7-0.1,1.3,0.3,1.7,0.9L161.1,190.6z"/>
	<path class="st13" d="M144.7,171.6L144.7,171.6c0-0.1-0.1-0.2-0.2-0.3l-5.1-3c-0.3-0.2-0.8-0.2-1.2,0l-9.3,5.4
		c-0.2,0.1-0.3,0.2-0.3,0.4l0,0l0,0.5c0,0,0,0,0,0c0,0.1,0,0.3,0.2,0.4l5.1,3c0.2,0.1,0.4,0.1,0.6,0.1c0.2,0,0.4-0.1,0.6-0.2
		l9.3-5.4c0.2-0.1,0.3-0.2,0.3-0.4l0,0L144.7,171.6z"/>
	
		<linearGradient id="SVGID_3_" gradientUnits="userSpaceOnUse" x1="155.355" y1="174.076" x2="156.0185" y2="174.076" gradientTransform="matrix(1 0 0 1 -27.5091 0)">
		<stop  offset="3.940890e-02" style="stop-color:#FFFFFF"/>
		<stop  offset="0.3172" style="stop-color:#FCFDFE"/>
		<stop  offset="0.5068" style="stop-color:#F3F7FB"/>
		<stop  offset="0.6701" style="stop-color:#E4EDF7"/>
		<stop  offset="0.8186" style="stop-color:#CEDEF0"/>
		<stop  offset="0.9557" style="stop-color:#B3CBE8"/>
		<stop  offset="1" style="stop-color:#A8C4E5"/>
	</linearGradient>
	<path class="st63" d="M127.9,174.2l0-0.5l0.7,0.4c0,0-0.2,0.5-0.2,0.5C128.3,174.5,127.9,174.2,127.9,174.2z"/>
	
		<linearGradient id="SVGID_4_" gradientUnits="userSpaceOnUse" x1="155.355" y1="172.973" x2="171.4781" y2="172.973" gradientTransform="matrix(1 0 0 1 -27.5091 0)">
		<stop  offset="3.940890e-02" style="stop-color:#FFFFFF"/>
		<stop  offset="0.3172" style="stop-color:#FCFDFE"/>
		<stop  offset="0.5068" style="stop-color:#F3F7FB"/>
		<stop  offset="0.6701" style="stop-color:#E4EDF7"/>
		<stop  offset="0.8186" style="stop-color:#CEDEF0"/>
		<stop  offset="0.9557" style="stop-color:#B3CBE8"/>
		<stop  offset="1" style="stop-color:#A8C4E5"/>
	</linearGradient>
	<path class="st64" d="M133.2,177.5l-5.1-3c-0.3-0.2-0.3-0.5,0.1-0.7l9.3-5.4c0.4-0.2,0.9-0.2,1.2,0l5.1,3c0.3,0.2,0.3,0.5-0.1,0.7
		l-9.3,5.4C134,177.7,133.5,177.7,133.2,177.5z"/>
	<path class="st65" d="M133.7,174.7l3.7-6.2c0.4-0.2,0.9-0.2,1.2,0l5.1,3c0.3,0.2,0.3,0.5-0.1,0.7l-9.3,5.4
		c-0.2,0.1-0.4,0.2-0.6,0.2L133.7,174.7z"/>
	<polygon class="st66" points="137.8,172.6 138.7,171.3 144,171.1 144,171.7 138.2,173.5 	"/>
	<path class="st38" d="M128.6,174.5c0,0.1-0.1,0.1-0.1,0.1c-0.1,0-0.1-0.2-0.1-0.2c0-0.1,0.1-0.1,0.1-0.1
		C128.5,174.3,128.6,174.4,128.6,174.5z"/>
	<path class="st38" d="M133.2,176.9l-5.1-3c-0.3-0.2-0.3-0.5,0.1-0.7l9.3-5.4c0.4-0.2,0.9-0.2,1.2,0l5.1,3c0.3,0.2,0.3,0.5-0.1,0.7
		l-9.3,5.4C134,177.1,133.5,177.1,133.2,176.9z"/>
	<path class="st47" d="M141.4,169.9l-1.4-0.8c-0.1,0-0.1-0.1,0-0.1l0,0c0.1,0,0.2,0,0.2,0l1.4,0.8c0.1,0,0.1,0.1,0,0.1l0,0
		C141.5,170,141.4,170,141.4,169.9z"/>
	<path class="st38" d="M131.1,176.1l-1.1-0.7c0,0-0.1-0.1-0.1-0.2l0,0c0-0.1,0-0.1,0.1-0.1l1.1,0.7
		C131.1,175.9,131.2,176,131.1,176.1L131.1,176.1C131.2,176.1,131.1,176.1,131.1,176.1z"/>
	<path class="st47" d="M142.4,172.6l0.6-0.3c0,0,0.1-0.1,0.1-0.1l0,0c0,0,0-0.1-0.1,0l-0.6,0.3C142.3,172.4,142.3,172.5,142.4,172.6
		L142.4,172.6C142.3,172.6,142.3,172.6,142.4,172.6z"/>
	<path class="st47" d="M141.6,173.1l0.6-0.3c0,0,0.1-0.1,0.1-0.1l0,0c0,0,0-0.1-0.1,0l-0.6,0.3C141.5,172.9,141.5,173,141.6,173.1
		L141.6,173.1C141.5,173.1,141.5,173.1,141.6,173.1z"/>
	<path class="st47" d="M131.7,175.1c-0.2,0.1-0.6,0.1-0.9,0c-0.2-0.1-0.2-0.4,0-0.5c0.2-0.1,0.6-0.1,0.9,0
		C131.9,174.7,131.9,174.9,131.7,175.1z"/>
	<path class="st67" d="M137.7,168.2l-7.8,4.5c-0.2,0.1-0.2,0.4,0,0.5l4.7,2.7c0.1,0,0.2,0,0.3,0l7.8-4.5c0.2-0.1,0.2-0.4,0-0.5
		l-4.7-2.7C137.9,168.2,137.8,168.2,137.7,168.2z"/>
	<path class="st5" d="M88,190.2l-2.6-20.7c-0.5-3.1,2.3-4,5.9-2.1l14.6,7.7c2.6,1.4,5,4,6,6.4l5.5,13.5c1.6,3.9-2.6,7.6-6.2,5.6
		L88,190.2z"/>
</g>
</svg>
