<?xml version="1.0" encoding="utf-8"?>
<!-- Generator: Adobe Illustrator 22.0.1, SVG Export Plug-In . SVG Version: 6.00 Build 0)  -->
<svg version="1.1" id="Layer_1" xmlns="http://www.w3.org/2000/svg" xmlns:xlink="http://www.w3.org/1999/xlink" x="0px" y="0px"
	 viewBox="0 0 300 300" style="enable-background:new 0 0 300 300;" xml:space="preserve">
<style type="text/css">
	.st0{fill:#F7FCFB;}
	.st1{opacity:0.4;fill:#A8C4E5;}
	.st2{fill:#918093;}
	.st3{fill:#6B5E6D;}
	.st4{fill:#BC4073;}
	.st5{fill:#15253D;}
	.st6{fill:#894E4E;}
	.st7{fill:#915350;}
	.st8{fill:#CEAB8B;}
	.st9{fill:#E1EAF4;}
	.st10{fill:#E5C2A5;}
	.st11{fill:#BC9A7E;}
	.st12{fill:#513554;}
	.st13{fill:#A8C4E5;}
	.st14{fill:#E9F5FF;}
	.st15{fill:#8585FF;}
	.st16{fill:#FFFFFF;}
	.st17{fill:#FFAA82;}
	.st18{fill:#7878EA;}
	.st19{fill:#B3B3FF;}
	.st20{fill:#A1A1E5;}
	.st21{fill:#565682;}
	.st22{fill:#6B6B9B;}
	.st23{fill:#45446C;}
	.st24{fill:#56547F;}
	.st25{fill:#46466B;}
	.st26{fill:#FCFEFF;}
	.st27{fill:url(#SVGID_1_);}
	.st28{fill:url(#SVGID_2_);}
	.st29{fill:#B2D0ED;}
	.st30{fill:#8DB0DA;}
	.st31{fill:#97CBFF;}
	.st32{fill:#87A6C4;}
	.st33{fill:#7694AD;}
	.st34{fill:#93B5D1;}
	.st35{fill:#353559;}
	.st36{fill:#27E0C0;}
	.st37{fill:#8AACCE;}
	.st38{fill:#B5CFEA;}
	.st39{fill:url(#SVGID_3_);}
	.st40{fill:url(#SVGID_4_);}
	.st41{fill:#6F6F9E;}
	.st42{fill:#D84177;}
	.st43{opacity:0.28;fill:#FFFFFF;}
	.st44{opacity:0.46;fill:#FFFFFF;}
	.st45{fill:#492817;}
	.st46{fill:#DD4078;}
	.st47{fill:url(#SVGID_5_);}
	.st48{fill:url(#SVGID_6_);}
	.st49{opacity:0.32;fill:#7474A3;}
	.st50{opacity:0.47;fill:#8585FF;}
</style>
<rect class="st0" width="300" height="300"/>
<title></title>
<g id="icomoon-ignore">
</g>
<g>
	<path class="st1" d="M180,271.4L39.7,188.9c-7.5-4.3-7.5-9.6-0.1-14l79.4-47l153.6,88.7L180,271.4z"/>
	<path class="st2" d="M273.1,220.5l0.4-0.1c1.2-0.2,2.1-1.3,1.9-2.6l-10.2-68.5c-0.2-1.2-1.3-2.1-2.6-1.9l-0.4,0.1
		c-1.2,0.2-2.1,1.3-1.9,2.6l10.2,68.5C270.7,219.8,271.9,220.7,273.1,220.5z"/>
	<path class="st2" d="M178.2,277.8L178.2,277.8c-1.3-0.1-2.3-1.3-2.2-2.6l9.5-110.9c0.1-1.3,1.3-2.3,2.6-2.2h0
		c1.3,0.1,2.3,1.3,2.2,2.6l-9.5,110.9C180.7,277,179.5,277.9,178.2,277.8z"/>
	<polygon class="st3" points="185.9,216.1 181.3,212.9 182.6,199.6 187.5,200.4 	"/>
	<polygon class="st3" points="264.4,176.9 268.8,173.4 266.5,160.2 261.7,161.3 	"/>
	<polygon class="st1" points="30.5,235.1 114.1,191.2 159.8,217.6 76.2,261.5 	"/>
	<path class="st4" d="M87.1,207.1l-47.2-27.2c-4.4-2.5-2.6-8.1,3.9-12.3l17-11c6.5-4.2,32.9-7.2,37.3-4.7l29.5,18.2
		c4.4,2.5,2.7,18.7-3.8,22.9l-17,11C100.4,208.3,91.4,209.7,87.1,207.1z"/>
	<path class="st5" d="M119.1,210.2c-0.3,0.2-4.5,2-4.7,2.2c-0.4,0.3-1.6,1.2-2.4,1.7c-1.5,1-4.9,4.9-9.8,1.7
		c-7.2-4.6,11.2-15.5,11.2-15.5l8.1-3.7c1-0.4,2.1-0.4,3.1,0.2h0c1.8,1,2.4,3.4,1.3,5C124,204.7,123.8,206.4,119.1,210.2z"/>
	<path class="st6" d="M118.3,207.9c-0.3,0.2-4.5,2-4.7,2.2c-0.4,0.3-1.6,1.2-2.4,1.7c-1.5,1-4.9,4.9-9.8,1.7
		c-7.2-4.6,11.2-15.5,11.2-15.5l8.1-3.7c1-0.4,2.1-0.4,3.1,0.2l0,0c1.8,1,2.4,3.4,1.3,5C123.3,202.4,123.1,204.2,118.3,207.9z"/>
	<path class="st7" d="M123.6,202.5c0.4-0.8,1.1-2.2,1.7-3.1c1.1-1.7,0.4-3.8-1.4-4.9c-1-0.6-2.1-0.6-3.1-0.2l-4,1.8
		C119,197.1,121.6,199.2,123.6,202.5z"/>
	<g>
		<g>
			<path class="st8" d="M86.7,181.8c6.1-4.1,12.6-9.1,19.5-11.5c0.5-0.2,3.1-1.2,1.6-0.6c1.3-0.5,0.4,0.1-0.1-0.2
				c-1.1-0.5-1.7-1-1.5-1c-0.5,0-0.3-1.3,0,0.7c0.2,1-0.1-1.3,0-0.2c0,0.4,0.1,0.8,0.1,1.2c0,1,0.1,1.9,0.1,2.9c0,1.1,0,2.2,0.1,3.2
				c0,0.7-0.2,3.6,0.1,1.9c-0.7,3.1-2.6,6.2-3.8,9.1c-1.9,4.8-3.1,9.6-3.5,14.7c-0.7,8.9,13.2,8.9,13.9,0c0.7-9,7.3-16.3,7.1-25.4
				c-0.1-4.9,0.3-10.5-2.1-15c-8-15.1-30.4,2.6-38.6,8.1C72.3,174.8,79.2,186.8,86.7,181.8L86.7,181.8z"/>
		</g>
	</g>
	<path class="st9" d="M112.1,200.6c-3.1,2.4-9.2,1.7-11.3-1.7c-0.1,1.8-0.2,3.6-0.3,5.4c-0.2,7.3,11.1,8,11.4,0.6
		C111.9,203.5,112,202.1,112.1,200.6z"/>
	<path class="st10" d="M97.9,197.7l-0.2,5c0,0.2,0.1,0.4,0.2,0.6c0.7,1.1,3.5,4.7,9,4c4.8-0.6,7.5-1.9,8.5-2.6
		c0.3-0.2,0.5-0.6,0.5-0.9l-0.2-5.1c0-0.8-0.8-1.3-1.5-0.9c-2.5,1.3-8,3.1-14.6-0.9C98.8,196.4,97.9,196.8,97.9,197.7z"/>
	<g>
		<path class="st11" d="M75.4,174L75.4,174c0.6,1.4-1.9-5.1-0.9-4c2.1,2.3,13.6,16.5,16.5,17.4c3.6,1.2-5.8-7.2-5.8-7.2
			s30-17.5,29.4-18.4c-4.9-6.8-9.6-8.9-19.1-5.2C84.8,160.8,72.4,167.5,75.4,174z"/>
	</g>
	<path class="st5" d="M137.4,220.5c-0.3,0.2-4.5,1.9-4.8,2.1c-0.4,0.3-1.7,1.1-2.4,1.6c-1.6,0.9-5,4.7-9.9,1.4
		c-7.1-4.8,11.7-15.1,11.7-15.1l8.2-3.4c1-0.4,2.2-0.3,3.1,0.3l0,0c1.8,1.1,2.3,3.4,1.1,5.1C142.5,215.2,142.3,216.9,137.4,220.5z"
		/>
	<path class="st6" d="M136.7,218.2c-0.3,0.2-4.5,1.9-4.8,2.1c-0.4,0.3-1.7,1.1-2.4,1.6c-1.6,0.9-5,4.7-9.9,1.4
		c-7.1-4.8,11.7-15.1,11.7-15.1l8.2-3.4c1-0.4,2.2-0.3,3.1,0.3h0c1.8,1.1,2.3,3.4,1.1,5.1C141.9,212.9,141.6,214.6,136.7,218.2z"/>
	<path class="st7" d="M142.1,212.9c0.5-0.8,1.2-2.2,1.8-3.1c1.2-1.6,0.5-3.8-1.3-4.9c-1-0.6-2.1-0.7-3.1-0.3l-4,1.7
		C137.8,207.4,140.2,209.6,142.1,212.9z"/>
	<g>
		<g>
			<path class="st8" d="M99.8,190.8c6.3-4.5,12.7-9.6,19.7-13.1c1.1-0.5,1-0.2,1.9-0.8c0.7-0.5,0.8,0.2,0.5-0.1c0,0-1.6-0.2-1.8-0.3
				c-0.9-0.4-2.1-2.1-2-2.1c0.5,0.3,0.3,0.6,0.3,1.8c0.3,11.8,0.4,23.9-0.4,35.6c-0.6,8.9,13.3,8.9,13.9,0
				c0.6-8.6,0.4-17.3,0.3-25.9c0-5.2,0.9-10.9-0.9-16c-6.4-17.9-30.8,3.4-38.4,8.8C85.6,184,92.6,196.1,99.8,190.8L99.8,190.8z"/>
		</g>
	</g>
	<path class="st9" d="M130.7,210.7c-3.2,2.3-9.2,1.4-11.2-2c-0.2,1.8-0.4,3.6-0.5,5.4c-0.5,7.3,10.9,8.3,11.3,1
		C130.4,213.6,130.5,212.1,130.7,210.7z"/>
	<path class="st10" d="M116.6,207.3l-0.3,5c0,0.2,0,0.4,0.1,0.6c0.7,1.1,3.3,4.8,8.8,4.3c4.8-0.4,7.5-1.7,8.6-2.3
		c0.3-0.2,0.5-0.5,0.5-0.9l0-5.1c0-0.8-0.8-1.3-1.5-1c-2.6,1.2-8.1,2.9-14.6-1.4C117.6,206,116.6,206.5,116.6,207.3z"/>
	<path class="st12" d="M125.1,234.6l0.2,0c1-0.2,1.7-1.1,1.6-2.1l-7.3-49.2c-0.2-1-1.1-1.7-2.1-1.6l-0.2,0c-1,0.2-1.7,1.1-1.6,2.1
		L123,233C123.2,234,124.1,234.7,125.1,234.6z"/>
	<path class="st3" d="M34.2,171.5l-0.6-0.1c-0.9-0.1-1.6-1-1.4-2l10.6-71.6c0.1-0.9,1-1.6,2-1.4l0.6,0.1c0.9,0.1,1.6,1,1.4,2
		l-10.6,71.6C36,171,35.1,171.6,34.2,171.5z"/>
	<rect x="27.8" y="102.8" class="st13" width="12.9" height="7.5"/>
	<rect x="262.2" y="150.7" class="st13" width="12.9" height="7.5"/>
	<path class="st13" d="M188.7,204.8L29.5,112.9c-2.5-1.4-2.2-4,0.7-5.6l74.3-42.9c2.9-1.7,7.2-1.8,9.7-0.4l159.2,91.9
		c2.5,1.4,2.2,4-0.7,5.6l-74.3,42.9C195.5,206,191.2,206.2,188.7,204.8z"/>
	<path class="st14" d="M188.7,197.6L29.5,105.7c-2.5-1.4-2.2-4,0.7-5.6l74.3-42.9c2.9-1.7,7.2-1.8,9.7-0.4l159.2,91.9
		c2.5,1.4,2.2,4-0.7,5.6l-74.3,42.9C195.5,198.9,191.2,199,188.7,197.6z"/>
	<path class="st15" d="M75.5,156.1l-33,25.5c-5.4,3.3-9.4,0-9.4-5.6l-0.6-9.2c0-5.7,4.4-13,9.8-16.3l33.2-20.3
		c5.4-3.3,9.8-1.4,9.8,4.3l0,5.4C85.3,145.5,80.9,152.8,75.5,156.1z"/>
	<path class="st12" d="M32.8,236.9L32.8,236.9c-1.1-0.2-1.8-1.2-1.6-2.2l9.2-61.9c0.2-1.1,1.2-1.8,2.2-1.6v0
		c1.1,0.2,1.8,1.2,1.6,2.2L35,235.3C34.9,236.3,33.9,237.1,32.8,236.9z"/>
	<path class="st12" d="M76.2,263.2L76.2,263.2c-1.1-0.2-1.9-1.2-1.7-2.3l10.4-69.8c0.2-1.1,1.2-1.9,2.3-1.7l0,0
		c1.1,0.2,1.9,1.2,1.7,2.3l-10.4,69.8C78.3,262.6,77.3,263.4,76.2,263.2z"/>
	<path class="st15" d="M84.5,213.7l-41.7-24.1c-4.5-2.6-7-7.7-7-7.7c-1.7-3.9,2.3-6.6,6.8-4.1l43.8,25.8c4.5,2.6,6.2,5.3,5.4,8.5
		C92,212.2,90.2,216.7,84.5,213.7z"/>
	<path class="st13" d="M167.9,129.5l-46.4-26.8c-0.3-0.2-0.6-0.2-0.9,0l-14.1,8.3c-0.6,0.3-0.6,1.1,0,1.5l46.2,26.7
		c0.3,0.2,0.6,0.2,0.8,0l14.2-8.2C168.5,130.7,168.5,129.9,167.9,129.5z"/>
	<path class="st16" d="M153.7,137.4l-46.2-26.7c-0.6-0.3-0.6-1.1,0-1.5l14.1-8.3c0.3-0.2,0.6-0.2,0.9,0l46.4,26.8
		c0.6,0.3,0.6,1.1,0,1.5l-14.2,8.2C154.3,137.6,154,137.6,153.7,137.4z"/>
	<path class="st13" d="M123.9,105.1c-0.1,0-0.2,0-0.3,0l-3.1-1.8c-0.1-0.1-0.1-0.2-0.1-0.2l2.1-1.2c0.1,0,0.2,0,0.3,0l3.1,1.8
		c0.1,0.1,0.1,0.2,0.1,0.2L123.9,105.1z"/>
	<path class="st13" d="M127.5,110.5c-0.1,0-0.2,0-0.3,0l-3.1-1.8c-0.1-0.1-0.1-0.2-0.1-0.2l2.1-1.2c0.1,0,0.2,0,0.3,0l3.1,1.8
		c0.1,0.1,0.1,0.2,0.1,0.2L127.5,110.5z"/>
	<path class="st13" d="M125.7,112.7c-0.1,0-0.2,0-0.3,0l-3.1-1.8c-0.1-0.1-0.1-0.2-0.1-0.2l2.1-1.2c0.1,0,0.2,0,0.3,0l3.1,1.8
		c0.1,0.1,0.1,0.2,0.1,0.2L125.7,112.7z"/>
	<path class="st13" d="M120.7,113.1c-0.1,0-0.2,0-0.3,0l-3.1-1.8c-0.1-0.1-0.1-0.2-0.1-0.2l2.1-1.2c0.1,0,0.2,0,0.3,0l3.1,1.8
		c0.1,0.1,0.1,0.2,0.1,0.2L120.7,113.1z"/>
	<path class="st13" d="M117.5,115c-0.1,0-0.3,0-0.4-0.1l-4.1-2.4c-0.1-0.1-0.2-0.2-0.1-0.2l2.4-1.4c0.1,0,0.3,0,0.4,0.1l4.1,2.4
		c0.1,0.1,0.2,0.2,0.1,0.2L117.5,115z"/>
	<path class="st13" d="M144.4,130.5c-0.1,0-0.2,0-0.3-0.1l-3.1-1.8c-0.1-0.1-0.2-0.1-0.1-0.2l0.9-0.5c0.1,0,0.2,0,0.3,0.1l3.1,1.8
		c0.1,0.1,0.2,0.1,0.1,0.2L144.4,130.5z"/>
	<path class="st13" d="M148.5,133c-0.1,0-0.2,0-0.3-0.1l-3.1-1.8c-0.1-0.1-0.2-0.1-0.1-0.2l0.9-0.5c0.1,0,0.2,0,0.3,0.1l3.1,1.8
		c0.1,0.1,0.2,0.1,0.1,0.2L148.5,133z"/>
	<path class="st13" d="M152.9,135.4c-0.1,0-0.2,0-0.3-0.1l-3.1-1.8c-0.1-0.1-0.2-0.1-0.1-0.2l0.9-0.5c0.1,0,0.2,0,0.3,0.1l3.1,1.8
		c0.1,0.1,0.2,0.1,0.1,0.2L152.9,135.4z"/>
	<path class="st13" d="M150.2,132c-0.1,0-0.2,0-0.3-0.1l-3.1-1.8c-0.1-0.1-0.2-0.1-0.1-0.2l0.9-0.5c0.1,0,0.2,0,0.3,0.1l3.1,1.8
		c0.1,0.1,0.2,0.1,0.1,0.2L150.2,132z"/>
	<path class="st13" d="M139,127.4c-0.1,0-0.2,0-0.3,0l-20.3-11.7c-0.1-0.1-0.1-0.2-0.1-0.2l2.4-1.4c0.1,0,0.2,0,0.3,0l20.3,11.7
		c0.1,0.1,0.1,0.2,0.1,0.2L139,127.4z"/>
	<path class="st13" d="M136.9,125.6c0,0-0.1,0-0.2-0.1l-16.1-9.3c-0.1-0.1-0.2-0.1-0.2-0.1l0.2-0.1c0,0,0.1,0,0.2,0.1l16.1,9.3
		c0.1,0.1,0.2,0.1,0.2,0.1L136.9,125.6z"/>
	<path class="st13" d="M125,115.6c-0.1,0-0.2,0-0.3,0l-3.1-1.8c-0.1-0.1-0.1-0.2-0.1-0.2l2.1-1.2c0.1,0,0.2,0,0.3,0l3.1,1.8
		c0.1,0.1,0.1,0.2,0.1,0.2L125,115.6z"/>
	<path class="st13" d="M129.3,118.1c-0.1,0-0.2,0-0.3,0l-3.1-1.8c-0.1-0.1-0.1-0.2-0.1-0.2l2.1-1.2c0.1,0,0.2,0,0.3,0l3.1,1.8
		c0.1,0.1,0.1,0.2,0.1,0.2L129.3,118.1z"/>
	<path class="st13" d="M133.6,120.5c-0.1,0-0.2,0-0.3,0l-3.1-1.8c-0.1-0.1-0.1-0.2-0.1-0.2l2.1-1.2c0.1,0,0.2,0,0.3,0l3.1,1.8
		c0.1,0.1,0.1,0.2,0.1,0.2L133.6,120.5z"/>
	<path class="st13" d="M137.9,123c-0.1,0-0.2,0-0.3,0l-3.1-1.8c-0.1-0.1-0.1-0.2-0.1-0.2l2.1-1.2c0.1,0,0.2,0,0.3,0l3.1,1.8
		c0.1,0.1,0.1,0.2,0.1,0.2L137.9,123z"/>
	<path class="st13" d="M142.2,125.5c-0.1,0-0.2,0-0.3,0l-3.1-1.8c-0.1-0.1-0.1-0.2-0.1-0.2l2.1-1.2c0.1,0,0.2,0,0.3,0l3.1,1.8
		c0.1,0.1,0.1,0.2,0.1,0.2L142.2,125.5z"/>
	<path class="st13" d="M146.5,128c-0.1,0-0.2,0-0.3,0l-3.1-1.8c-0.1-0.1-0.1-0.2-0.1-0.2l2.1-1.2c0.1,0,0.2,0,0.3,0l3.1,1.8
		c0.1,0.1,0.1,0.2,0.1,0.2L146.5,128z"/>
	<path class="st13" d="M156.1,133.6c-0.1,0-0.2,0-0.3,0l-8.5-4.9c-0.1-0.1-0.1-0.2-0.1-0.2l2.1-1.2c0.1,0,0.2,0,0.3,0l8.5,4.9
		c0.1,0.1,0.1,0.2,0.1,0.2L156.1,133.6z"/>
	<path class="st13" d="M130,115.2c-0.1,0-0.2,0-0.3,0l-3.1-1.8c-0.1-0.1-0.1-0.2-0.1-0.2l2.1-1.2c0.1,0,0.2,0,0.3,0l3.1,1.8
		c0.1,0.1,0.1,0.2,0.1,0.2L130,115.2z"/>
	<path class="st13" d="M134.3,117.6c-0.1,0-0.2,0-0.3,0l-3.1-1.8c-0.1-0.1-0.1-0.2-0.1-0.2l2.1-1.2c0.1,0,0.2,0,0.3,0l3.1,1.8
		c0.1,0.1,0.1,0.2,0.1,0.2L134.3,117.6z"/>
	<path class="st13" d="M138.5,120.1c-0.1,0-0.2,0-0.3,0l-3.1-1.8c-0.1-0.1-0.1-0.2-0.1-0.2l2.1-1.2c0.1,0,0.2,0,0.3,0l3.1,1.8
		c0.1,0.1,0.1,0.2,0.1,0.2L138.5,120.1z"/>
	<path class="st13" d="M142.8,122.6c-0.1,0-0.2,0-0.3,0l-3.1-1.8c-0.1-0.1-0.1-0.2-0.1-0.2l2.1-1.2c0.1,0,0.2,0,0.3,0l3.1,1.8
		c0.1,0.1,0.1,0.2,0.1,0.2L142.8,122.6z"/>
	<path class="st13" d="M147.1,125.1c-0.1,0-0.2,0-0.3,0l-3.1-1.8c-0.1-0.1-0.1-0.2-0.1-0.2l2.1-1.2c0.1,0,0.2,0,0.3,0l3.1,1.8
		c0.1,0.1,0.1,0.2,0.1,0.2L147.1,125.1z"/>
	<path class="st13" d="M151.4,127.5c-0.1,0-0.2,0-0.3,0l-3.1-1.8c-0.1-0.1-0.1-0.2-0.1-0.2l2.1-1.2c0.1,0,0.2,0,0.3,0l3.1,1.8
		c0.1,0.1,0.1,0.2,0.1,0.2L151.4,127.5z"/>
	<path class="st13" d="M155.7,130c-0.1,0-0.2,0-0.3,0l-3.1-1.8c-0.1-0.1-0.1-0.2-0.1-0.2l2.1-1.2c0.1,0,0.2,0,0.3,0l3.1,1.8
		c0.1,0.1,0.1,0.2,0.1,0.2L155.7,130z"/>
	<path class="st13" d="M131.8,112.9c-0.1,0-0.2,0-0.3,0l-3.1-1.8c-0.1-0.1-0.1-0.2-0.1-0.2l2.1-1.2c0.1,0,0.2,0,0.3,0l3.1,1.8
		c0.1,0.1,0.1,0.2,0.1,0.2L131.8,112.9z"/>
	<path class="st13" d="M136.1,115.4c-0.1,0-0.2,0-0.3,0l-3.1-1.8c-0.1-0.1-0.1-0.2-0.1-0.2l2.1-1.2c0.1,0,0.2,0,0.3,0l3.1,1.8
		c0.1,0.1,0.1,0.2,0.1,0.2L136.1,115.4z"/>
	<path class="st13" d="M140.4,117.9c-0.1,0-0.2,0-0.3,0l-3.1-1.8c-0.1-0.1-0.1-0.2-0.1-0.2l2.1-1.2c0.1,0,0.2,0,0.3,0l3.1,1.8
		c0.1,0.1,0.1,0.2,0.1,0.2L140.4,117.9z"/>
	<path class="st13" d="M144.7,120.4c-0.1,0-0.2,0-0.3,0l-3.1-1.8c-0.1-0.1-0.1-0.2-0.1-0.2l2.1-1.2c0.1,0,0.2,0,0.3,0l3.1,1.8
		c0.1,0.1,0.1,0.2,0.1,0.2L144.7,120.4z"/>
	<path class="st13" d="M149,122.8c-0.1,0-0.2,0-0.3,0l-3.1-1.8c-0.1-0.1-0.1-0.2-0.1-0.2l2.1-1.2c0.1,0,0.2,0,0.3,0l3.1,1.8
		c0.1,0.1,0.1,0.2,0.1,0.2L149,122.8z"/>
	<path class="st13" d="M153.3,125.3c-0.1,0-0.2,0-0.3,0l-3.1-1.8c-0.1-0.1-0.1-0.2-0.1-0.2l2.1-1.2c0.1,0,0.2,0,0.3,0l3.1,1.8
		c0.1,0.1,0.1,0.2,0.1,0.2L153.3,125.3z"/>
	<path class="st13" d="M157.5,127.8c-0.1,0-0.2,0-0.3,0l-3.1-1.8c-0.1-0.1-0.1-0.2-0.1-0.2l2.1-1.2c0.1,0,0.2,0,0.3,0l3.1,1.8
		c0.1,0.1,0.1,0.2,0.1,0.2L157.5,127.8z"/>
	<path class="st13" d="M123.2,108c-0.1,0-0.2,0-0.3,0l-5.3-3.1c-0.1-0.1-0.1-0.2-0.1-0.2l2.1-1.2c0.1,0,0.2,0,0.3,0l5.3,3.1
		c0.1,0.1,0.1,0.2,0.1,0.2L123.2,108z"/>
	<path class="st13" d="M164.7,128.6c-0.1,0-0.2,0-0.3,0l-5.3-3.1c-0.1-0.1-0.1-0.2-0.1-0.2l2.1-1.2c0.1,0,0.2,0,0.3,0l5.3,3.1
		c0.1,0.1,0.1,0.2,0.1,0.2L164.7,128.6z"/>
	<path class="st13" d="M121.4,110.2c-0.1,0-0.2,0-0.3,0l-6.3-3.6c-0.1-0.1-0.1-0.2-0.1-0.2l2.1-1.2c0.1,0,0.2,0,0.3,0l6.3,3.6
		c0.1,0.1,0.1,0.2,0.1,0.2L121.4,110.2z"/>
	<path class="st13" d="M116.4,110.7c-0.1,0-0.2,0-0.3,0l-4.2-2.4c-0.1-0.1-0.1-0.2-0.1-0.2l2.1-1.2c0.1,0,0.2,0,0.3,0l4.2,2.4
		c0.1,0.1,0.1,0.2,0.1,0.2L116.4,110.7z"/>
	<path class="st13" d="M128.2,107.6c-0.1,0-0.2,0-0.3,0l-3.1-1.8c-0.1-0.1-0.1-0.2-0.1-0.2l2.1-1.2c0.1,0,0.2,0,0.3,0l3.1,1.8
		c0.1,0.1,0.1,0.2,0.1,0.2L128.2,107.6z"/>
	<path class="st13" d="M132.5,110c-0.1,0-0.2,0-0.3,0l-3.1-1.8c-0.1-0.1-0.1-0.2-0.1-0.2l2.1-1.2c0.1,0,0.2,0,0.3,0l3.1,1.8
		c0.1,0.1,0.1,0.2,0.1,0.2L132.5,110z"/>
	<path class="st13" d="M136.8,112.5c-0.1,0-0.2,0-0.3,0l-3.1-1.8c-0.1-0.1-0.1-0.2-0.1-0.2l2.1-1.2c0.1,0,0.2,0,0.3,0l3.1,1.8
		c0.1,0.1,0.1,0.2,0.1,0.2L136.8,112.5z"/>
	<path class="st13" d="M141,115c-0.1,0-0.2,0-0.3,0l-3.1-1.8c-0.1-0.1-0.1-0.2-0.1-0.2l2.1-1.2c0.1,0,0.2,0,0.3,0l3.1,1.8
		c0.1,0.1,0.1,0.2,0.1,0.2L141,115z"/>
	<path class="st13" d="M145.3,117.5c-0.1,0-0.2,0-0.3,0l-3.1-1.8c-0.1-0.1-0.1-0.2-0.1-0.2l2.1-1.2c0.1,0,0.2,0,0.3,0l3.1,1.8
		c0.1,0.1,0.1,0.2,0.1,0.2L145.3,117.5z"/>
	<path class="st13" d="M149.6,119.9c-0.1,0-0.2,0-0.3,0l-3.1-1.8c-0.1-0.1-0.1-0.2-0.1-0.2l2.1-1.2c0.1,0,0.2,0,0.3,0l3.1,1.8
		c0.1,0.1,0.1,0.2,0.1,0.2L149.6,119.9z"/>
	<path class="st13" d="M153.9,122.4c-0.1,0-0.2,0-0.3,0l-3.1-1.8c-0.1-0.1-0.1-0.2-0.1-0.2l2.1-1.2c0.1,0,0.2,0,0.3,0l3.1,1.8
		c0.1,0.1,0.1,0.2,0.1,0.2L153.9,122.4z"/>
	<path class="st13" d="M158.2,124.9c-0.1,0-0.2,0-0.3,0l-3.1-1.8c-0.1-0.1-0.1-0.2-0.1-0.2l2.1-1.2c0.1,0,0.2,0,0.3,0l3.1,1.8
		c0.1,0.1,0.1,0.2,0.1,0.2L158.2,124.9z"/>
	<path class="st13" d="M160.7,127.1c-0.1,0-0.1-0.1-0.2-0.1c-0.1,0-0.1,0-0.2,0l-2.1,1.2c0,0-0.1,0.1,0,0.1c0,0,0.1,0.1,0.1,0.1
		l0.8,0.5l-2.7,1.6c0,0,0,0.1,0,0.1c0,0,0.1,0.1,0.1,0.1l2.1,1.2c0.1,0,0.1,0.1,0.2,0.1c0.1,0,0.1,0,0.2,0l4.9-2.8c0,0,0-0.1,0-0.1
		c0,0-0.1-0.1-0.1-0.1L160.7,127.1z"/>
	<g>
		<g>
			<path class="st17" d="M56.8,119.7c2.9,4,9,15.4,15.3,14.6c2.4-0.3,3.9-2.1,4.4-4.4c0.3-1.2,0.4-4.1,0.4-4.2
				c-0.2-0.4,0.4-0.5,0.1-0.6c0.1,0-0.8,1-0.9,0.9c0,0.1-0.3,0.1,0.9,0.2c1.3,0.1,2.7-0.2,3.9-0.4c4.8-0.7,9.3-2.5,13.6-4.7
				c4.1-2.1,7.9-4.7,11.8-7.2c2.7-1.7,5.9-4.2,9.3-3.8c5.7,0.7,5.7-8.3,0-8.9c-6.7-0.8-13.1,4.6-18.4,7.9c-3.7,2.3-7.5,4.7-11.6,6.2
				c-4.1,1.5-8.1,1-12.1,2.1c-4.3,1.1-5.4,5.1-5.8,9c0,0.5-0.2,1.4-0.1,1.9c0.1-0.6,0.1-0.8,0-0.5c-0.5,2,1.2,1.2,5.2-2.2
				c0.1,0.5-0.2,0-0.4-0.4c-2-3.5-5.7-6.9-8.2-10.2C61.2,110.6,53.4,115.1,56.8,119.7L56.8,119.7z"/>
		</g>
	</g>
	
		<ellipse transform="matrix(5.334082e-03 -1 1 5.334082e-03 50.5525 322.4475)" class="st13" cx="187.4" cy="135.8" rx="5" ry="8.6"/>
	
		<ellipse transform="matrix(3.835192e-03 -1 1 3.835192e-03 86.4418 380.7909)" class="st13" cx="234.3" cy="147" rx="4.4" ry="7.6"/>
	
		<ellipse transform="matrix(5.420197e-03 -1 1 5.420197e-03 48.2702 319.1665)" class="st15" cx="184.6" cy="135.3" rx="4.4" ry="7.6"/>
	<polygon class="st15" points="190.9,135.5 177,135.4 177,123 190.9,123.1 	"/>
	<path class="st18" d="M188.1,123v11.4l0,0.4c0,1.9-1,2.2-2.5,3.1c-0.9,0.5-2,1.1-3.1,1.3c2.6,0.5,5.6-0.2,7.6-1.4
		c1.5-0.9,2.2-1.5,2.2-3.4h0l0-11.3L188.1,123z"/>
	
		<ellipse transform="matrix(5.420846e-03 -1 1 5.420846e-03 60.484 307.0185)" class="st19" cx="184.6" cy="123.1" rx="4.4" ry="7.6"/>
	<path class="st20" d="M189.1,125.6c-2.4,1.4-6.4,1.4-8.9,0c-2.5-1.4-2.5-3.7,0-5.1c2.4-1.4,6.4-1.4,8.9,0
		C191.5,121.9,191.5,124.2,189.1,125.6z"/>
	<path class="st21" d="M189.1,122.7c-2.5-1.4-6.4-1.4-8.9,0c-0.7,0.4-1.2,0.9-1.5,1.4c0.3,0.5,0.8,1,1.6,1.5c2.5,1.4,6.4,1.4,8.9,0
		c0.7-0.4,1.2-0.9,1.5-1.4C190.3,123.6,189.8,123.1,189.1,122.7z"/>
	<path class="st22" d="M180.2,125.6c-0.7-0.4-1.2-0.9-1.5-1.4c0.2-0.3,0.4-0.6,0.7-0.9c2.1-0.4,4.5-0.1,6.2,0.9
		c0.7,0.4,1.2,0.9,1.5,1.4c0.1,0.2,0.2,0.5,0.3,0.7c-0.4,0.1-0.7,0.2-1,0.2C184.2,126.9,181.8,126.6,180.2,125.6z"/>
	<g>
		<g>
			<path class="st23" d="M189.3,128.7c0.9,0.5,2.2,0.8,2.5,1.9c0.3,0.9,0.1,2.1,0.1,3c0,0.5-0.1,0.9,0,1.4c0,0.2,0,0.3,0,0.5
				c0.3,0.4,0.3,0.5,0,0.3c-0.4,0-1.3-0.6-1.6-0.8c-1.1-0.6-2.1,1.1-1,1.7c0.8,0.4,2,1.3,2.9,1.1c1.4-0.2,1.6-1.5,1.6-2.6
				c0-1.7,0.3-3.7-0.1-5.4c-0.4-1.5-2.1-2.2-3.4-2.8C189.2,126.4,188.2,128.1,189.3,128.7L189.3,128.7z"/>
		</g>
	</g>
	<path class="st24" d="M56.1,111.1c-2.9,3.1-2.8,5.1-3.2,9.6c-0.3,4.3,2.2,8.2,6.3,9.6l40.7,13.6c0,0,11.4-15.8-2-21.6
		c-7-3-11.7-7.1-16.9-10.7C73.5,106.2,62.8,103.8,56.1,111.1z"/>
	<path class="st24" d="M52.1,180.8c-2.7-1-2-38.7,1.3-64.6l47.7,21.7c-4.2,22.4-4.2,39.3-2.3,66L52.1,180.8z"/>
	<path class="st25" d="M101.1,137.9l-7.9-3.5c-4.8,22.7-5.8,39.2-2.3,64.8l-0.1,0c0,1.5-1.1,3.1-3.3,4.4v0c-3.9,2.3,1.8,3.4,5.7,1.2
		l10.1-19.9C101.1,162.9,95.7,167.6,101.1,137.9z"/>
	<path class="st15" d="M127,192.9l-33.2,20.3c-5.4,3.3-9.5,1.7-9.2-3.4l0.3-5c0.3-5.2,4.9-12.1,10.3-15.4l33.2-20.3
		c5.4-3.3,9.5-1.7,9.2,3.4l-0.3,5C137,182.6,132.4,189.6,127,192.9z"/>
	<path class="st15" d="M35.5,179.7l-5.1-46.4c-1-6.8,4.9-8.6,12.8-4l31.5,18.4c5.7,3.3,10.9,9.2,13.1,14.6l11.9,30.1
		c3.4,8.6-8.2,22.7-16.1,18L35.5,179.7z"/>
	<path class="st23" d="M161.4,148.9l-6.3,4.3c-2.3,1.6-5.5,1-7.1-1.3l0,0c-1.6-2.3-1-5.5,1.3-7.1l6.3-4.3c2.3-1.6,5.5-1,7.1,1.3l0,0
		C164.3,144.1,163.7,147.3,161.4,148.9z"/>
	<g>
		<g>
			<path class="st17" d="M100.9,139.2c6.8,6.2,13.1,17.9,23.4,17.9c11.6,0,21.4-9.5,32.3-12.4c5.6-1.5,3.2-10.1-2.4-8.6
				c-9.8,2.6-18.2,10.3-28.2,11.9c-3.3,0.5-5.1-0.7-7.3-3c-3.8-4.1-7.4-8.3-11.5-12C103,129,96.6,135.3,100.9,139.2L100.9,139.2z"/>
		</g>
	</g>
	<path class="st24" d="M92.6,135.1l17.1,16.7c5.6,4.1,12.9-6.2,8.6-9.9l-16.7-17.4c-2.8-2.4-6.5-2.4-8.7,0v0
		C90.7,127,90,132.2,92.6,135.1z"/>
	<g>
		<g>
			<path class="st26" d="M107.1,149.2c4.7-1.6,8-4.2,9.5-9.1c0.6-1.8-2.3-2.6-2.8-0.8c-1.2,3.9-3.7,5.8-7.5,7.1
				C104.5,147,105.3,149.8,107.1,149.2L107.1,149.2z"/>
		</g>
	</g>
	<path class="st13" d="M133.9,85.5L133.9,85.5c0-0.2-0.1-0.3-0.3-0.5l-8.1-4.7c-0.5-0.3-1.3-0.2-1.9,0.1L109,88.9
		c-0.3,0.2-0.4,0.4-0.5,0.6l0,0l0,0.8c0,0,0,0,0,0c-0.1,0.2,0,0.5,0.3,0.6l8.1,4.7c0.2,0.1,0.6,0.2,0.9,0.2c0.3,0,0.7-0.1,1-0.3
		l14.6-8.4c0.3-0.2,0.4-0.4,0.5-0.6l0,0L133.9,85.5z"/>
	
		<linearGradient id="SVGID_1_" gradientUnits="userSpaceOnUse" x1="101.3829" y1="89.4258" x2="102.4273" y2="89.4258" gradientTransform="matrix(1 0 0 1 5.9476 0)">
		<stop  offset="3.940890e-02" style="stop-color:#FFFFFF"/>
		<stop  offset="0.3172" style="stop-color:#FCFDFE"/>
		<stop  offset="0.5068" style="stop-color:#F3F7FB"/>
		<stop  offset="0.6701" style="stop-color:#E4EDF7"/>
		<stop  offset="0.8186" style="stop-color:#CEDEF0"/>
		<stop  offset="0.9557" style="stop-color:#B3CBE8"/>
		<stop  offset="1" style="stop-color:#A8C4E5"/>
	</linearGradient>
	<path class="st27" d="M107.4,89.5l0-0.8l1,0.7c0,0-0.3,0.7-0.3,0.7C108,90.1,107.4,89.5,107.4,89.5z"/>
	
		<linearGradient id="SVGID_2_" gradientUnits="userSpaceOnUse" x1="101.3829" y1="87.6895" x2="126.7624" y2="87.6895" gradientTransform="matrix(1 0 0 1 5.9476 0)">
		<stop  offset="3.940890e-02" style="stop-color:#FFFFFF"/>
		<stop  offset="0.3172" style="stop-color:#FCFDFE"/>
		<stop  offset="0.5068" style="stop-color:#F3F7FB"/>
		<stop  offset="0.6701" style="stop-color:#E4EDF7"/>
		<stop  offset="0.8186" style="stop-color:#CEDEF0"/>
		<stop  offset="0.9557" style="stop-color:#B3CBE8"/>
		<stop  offset="1" style="stop-color:#A8C4E5"/>
	</linearGradient>
	<path class="st28" d="M115.7,94.8l-8.1-4.7c-0.5-0.3-0.4-0.8,0.1-1.1l14.6-8.4c0.6-0.3,1.4-0.4,1.9-0.1l8.1,4.7
		c0.5,0.3,0.4,0.8-0.1,1.1l-14.6,8.4C117.1,95.1,116.2,95.1,115.7,94.8z"/>
	<path class="st29" d="M116.6,90.3l5.8-9.7c0.6-0.3,1.4-0.4,1.9-0.1l8.1,4.7c0.5,0.3,0.4,0.8-0.1,1.1l-14.6,8.4
		c-0.3,0.2-0.6,0.3-1,0.3L116.6,90.3z"/>
	<polygon class="st30" points="123,87.1 124.5,85.1 132.7,84.8 132.7,85.7 123.7,88.6 	"/>
	<path class="st23" d="M108.5,90.1c0,0.1-0.1,0.2-0.2,0.1c-0.1-0.1-0.2-0.2-0.2-0.4c0-0.1,0.1-0.2,0.2-0.1
		C108.4,89.8,108.5,90,108.5,90.1z"/>
	<path class="st23" d="M115.7,93.9l-8.1-4.7c-0.5-0.3-0.4-0.8,0.1-1.1l14.6-8.4c0.6-0.3,1.4-0.4,1.9-0.1l8.1,4.7
		c0.5,0.3,0.4,0.8-0.1,1.1l-14.6,8.4C117.1,94.1,116.2,94.2,115.7,93.9z"/>
	<path class="st21" d="M128.6,82.9l-2.2-1.3c-0.1-0.1-0.1-0.1,0-0.2l0,0c0.1-0.1,0.3-0.1,0.4,0l2.2,1.3c0.1,0.1,0.1,0.1,0,0.2l0,0
		C128.9,83,128.7,83,128.6,82.9z"/>
	<path class="st23" d="M112.4,92.6l-1.8-1c-0.1,0-0.1-0.2-0.1-0.3l0,0c0-0.1,0.1-0.1,0.1-0.1l1.8,1c0.1,0,0.1,0.2,0.1,0.3l0,0
		C112.6,92.6,112.5,92.7,112.4,92.6z"/>
	<path class="st21" d="M130.2,87.1l0.9-0.5c0.1,0,0.1-0.1,0.1-0.2l0,0c0-0.1,0-0.1-0.1-0.1l-0.9,0.5
		C130.1,86.9,130.1,86.9,130.2,87.1L130.2,87.1C130.1,87.1,130.1,87.1,130.2,87.1z"/>
	<path class="st21" d="M128.9,87.9l0.9-0.5c0.1,0,0.1-0.1,0.1-0.2l0,0c0-0.1,0-0.1-0.1-0.1l-0.9,0.5
		C128.9,87.7,128.8,87.7,128.9,87.9L128.9,87.9C128.8,87.9,128.9,87.9,128.9,87.9z"/>
	<path class="st21" d="M113.4,91c-0.4,0.2-1,0.2-1.4,0c-0.4-0.2-0.4-0.6,0-0.8c0.4-0.2,1-0.2,1.4,0C113.8,90.4,113.8,90.8,113.4,91z
		"/>
	<path class="st31" d="M122.9,80.2l-12.3,7.1c-0.3,0.2-0.3,0.6,0,0.7l7.5,4.3c0.1,0.1,0.3,0.1,0.4,0l12.3-7.1c0.3-0.2,0.3-0.6,0-0.7
		l-7.5-4.3C123.2,80.1,123,80.1,122.9,80.2z"/>
	
		<ellipse transform="matrix(5.420008e-03 -1 1 5.420008e-03 83.9162 374.3284)" class="st32" cx="230.1" cy="145" rx="4.8" ry="8.4"/>
	<polygon class="st32" points="217.9,133.3 221.8,145.3 238.4,145.6 242.2,134 	"/>
	<path class="st33" d="M237.5,134l-3.8,11.9h0c-0.2,0.7-1,1.9-2.4,2.7c-1,0.6-2.2,0.9-3.4,1.1c2.8,0.5,5.9,0.2,8.1-1.1
		c1.4-0.8,2.2-2,2.4-2.7h0l3.8-11.9H237.5z"/>
	
		<ellipse transform="matrix(5.422354e-03 -1 1 5.422354e-03 96.3951 361.9162)" class="st34" cx="230.1" cy="132.5" rx="7.1" ry="12.3"/>
	
		<ellipse transform="matrix(5.424544e-03 -1 1 5.424544e-03 96.5399 361.6017)" class="st35" cx="230.1" cy="132.3" rx="6.1" ry="10.6"/>
	<g>
		<path class="st36" d="M222,129.8L222,129.8c-0.5-0.7-1-1.4-1.1-2.3c-0.1-0.8,0.3-1.8,1.1-2.1c0.9-0.4,2,0.1,2.7,0.8
			c0.7,0.7,1.2,1.6,1.9,2.2c-1-3-1.9-6.1-2.9-9.1c-0.3-0.9-0.6-1.9-0.4-2.8c0.2-0.9,1.1-1.8,2-1.7c1.8,0.3,1.6,3.4,3.2,4.3
			c-1.2-2.3-2-4.7-2.4-7.2c-0.2-1.5-0.3-3.1,0.4-4.4c0.7-1.3,2.3-2.3,3.7-1.8c1.7,0.7,2.1,2.9,2.1,4.8c0.1,2.4,0.2,4.8,0.2,7.1
			c0.6-2.4,1.5-5.1,3.8-5.9c0.6,3.3,0.1,6.7-1.4,9.7c0.6-1.1,1.8-1.8,3.1-1.8c0.6,3.3-0.6,6.9-2.9,9.3c0.7-0.7,1.3-1.5,2-2.2
			c0.6,2.3-0.2,4.9-2,6.5C230.9,136.8,224.8,133.6,222,129.8z"/>
	</g>
	<path class="st13" d="M141.2,88.9l60.9,36c0.4,0.3,1,0.2,1.4,0l4.4-2.5c1-0.6,1.1-2,0.2-2.5l-60.9-36c-0.4-0.3-1-0.2-1.4,0
		l-4.4,2.5C140.4,86.9,140.2,88.3,141.2,88.9z"/>
	<polygon class="st37" points="204.7,121.9 208.1,119.6 198.9,108.3 202.1,113.6 	"/>
	<path class="st38" d="M136.3,23.9l3.3-2.6l7.2,8.1c0,0-4.6,3.4-5,3.4C141.3,32.7,136.3,23.9,136.3,23.9z"/>
	<path class="st37" d="M161.9,117.1l-13.7-7.9c-1.1-0.6-1.1-1.7,0.1-2.3l19.4-10.3c1.1-0.6,2.7-0.5,3.8,0.1l12.4,7.1
		c1,0.6,1.1,1.6,0.1,2.2l-18,11.1C164.8,117.7,163,117.7,161.9,117.1z"/>
	
		<linearGradient id="SVGID_3_" gradientUnits="userSpaceOnUse" x1="145.4436" y1="113.3592" x2="174.9505" y2="96.3234" gradientTransform="matrix(1 0 0 1 5.9476 0)">
		<stop  offset="3.940890e-02" style="stop-color:#FFFFFF"/>
		<stop  offset="0.3172" style="stop-color:#FCFDFE"/>
		<stop  offset="0.5068" style="stop-color:#F3F7FB"/>
		<stop  offset="0.6701" style="stop-color:#E4EDF7"/>
		<stop  offset="0.8186" style="stop-color:#CEDEF0"/>
		<stop  offset="0.9557" style="stop-color:#B3CBE8"/>
		<stop  offset="1" style="stop-color:#A8C4E5"/>
	</linearGradient>
	<path class="st39" d="M161.9,115.2l-13.7-7.9c-1.1-0.6-1.1-1.7,0.1-2.3l19.4-10.3c1.1-0.6,2.7-0.5,3.8,0.1l12.4,7.1
		c1,0.6,1.1,1.6,0.1,2.2l-18,11.1C164.8,115.8,163,115.8,161.9,115.2z"/>
	<polygon class="st23" points="158.9,99.4 175.7,109.2 179.2,107 162.5,97.4 	"/>
	<path class="st38" d="M207.4,60.1L207.4,60.1L207.4,60.1L141,21.7l-0.6-0.4c-0.5-0.3-1.1,0-1.1,0.7l0.6,0.2h0.4v61
		c0,0.7,0.3,1.5,0.8,1.8c0,0,67.1,32.6,67.1,31.9l0.1-55.1v-0.1C208.2,61.1,207.9,60.4,207.4,60.1z"/>
	<path class="st37" d="M180,83.9c8.6-8.7,13.5,15.9,18.9,29.4c2.7,6.8,9.2,6.3,9.2,6.3l0.1-57.5v-0.3c0-0.3,0-0.8-0.2-1.2L180,83.9z
		"/>
	
		<linearGradient id="SVGID_4_" gradientUnits="userSpaceOnUse" x1="130.1259" y1="73.1707" x2="199.2042" y2="73.1707" gradientTransform="matrix(1 0 0 1 5.9476 0)">
		<stop  offset="3.940890e-02" style="stop-color:#FFFFFF"/>
		<stop  offset="0.3172" style="stop-color:#FCFDFE"/>
		<stop  offset="0.5068" style="stop-color:#F3F7FB"/>
		<stop  offset="0.6701" style="stop-color:#E4EDF7"/>
		<stop  offset="0.8186" style="stop-color:#CEDEF0"/>
		<stop  offset="0.9557" style="stop-color:#B3CBE8"/>
		<stop  offset="1" style="stop-color:#A8C4E5"/>
	</linearGradient>
	<path class="st40" d="M204.1,121.9l-67.1-38.4c-0.6-0.3-1-1.1-1-1.7l0-56.7c0-0.6,0.5-0.9,1-0.6l67.1,38.4c0.6,0.3,1,1.1,1,1.7
		l0,56.7C205.1,121.9,204.7,122.2,204.1,121.9z"/>
	<path class="st23" d="M204.2,114.1l-67.3-38.9c-0.5-0.3-0.9-1-0.9-1.6l-0.1-49.1c0-0.6,0.4-0.8,0.9-0.5l67.3,38.9
		c0.5,0.3,0.9,1,0.9,1.6l0.1,49.1C205.1,114.1,204.7,114.4,204.2,114.1z"/>
	<polygon class="st31" points="201.6,107.4 138.3,70.8 138.4,28.3 201.7,64.9 	"/>
	<path class="st41" d="M186.2,65.1l-34.4-19.9c-0.5-0.3-0.9-1.1-0.9-1.7l0,0c0-0.7,0.4-1,0.9-0.7l34.4,19.9c0.5,0.3,0.9,1.1,0.9,1.7
		l0,0C187.1,65.1,186.7,65.4,186.2,65.1z"/>
	<path class="st42" d="M186.5,76.2l-27.7-16c-0.5-0.3-0.9-1.1-0.9-1.7l0,0c0-0.7,0.4-1,0.9-0.7l27.7,16c0.5,0.3,0.9,1.1,0.9,1.7l0,0
		C187.4,76.2,187,76.5,186.5,76.2z"/>
	<path class="st41" d="M186.5,82.3l-9.2-5.3c-0.5-0.3-0.9-1.1-0.9-1.7l0,0c0-0.7,0.4-1,0.9-0.7l9.2,5.3c0.5,0.3,0.9,1.1,0.9,1.7l0,0
		C187.4,82.3,187,82.6,186.5,82.3z"/>
	<path class="st41" d="M163.6,69.1l-4.4-2.6c-0.5-0.3-0.9-1.1-0.9-1.7l0,0c0-0.7,0.4-1,0.9-0.7l4.4,2.6c0.5,0.3,0.9,1.1,0.9,1.7l0,0
		C164.5,69.1,164.1,69.4,163.6,69.1z"/>
	<path class="st41" d="M158.1,72.3l-5.9-3.4c-0.5-0.3-0.9-1.1-0.9-1.7l0,0c0-0.7,0.4-1,0.9-0.7l5.9,3.4c0.5,0.3,0.9,1.1,0.9,1.7l0,0
		C159,72.3,158.6,72.6,158.1,72.3z"/>
	<path class="st42" d="M167.5,83.9l-15.3-8.8c-0.5-0.3-0.9-1.1-0.9-1.7v0c0-0.7,0.4-1,0.9-0.7l15.3,8.8c0.5,0.3,0.9,1.1,0.9,1.7l0,0
		C168.4,83.9,168,84.2,167.5,83.9z"/>
	<path class="st41" d="M186.3,88.6l-23.8-13.8c-0.5-0.3-0.9-1.1-0.9-1.7l0,0c0-0.7,0.4-1,0.9-0.7l23.8,13.8c0.5,0.3,0.9,1.1,0.9,1.7
		l0,0C187.2,88.6,186.8,88.9,186.3,88.6z"/>
	<path class="st41" d="M172.9,74.5l-3.8-2.2c-0.5-0.3-0.9-1.1-0.9-1.7l0,0c0-0.7,0.4-1,0.9-0.7l3.8,2.2c0.5,0.3,0.9,1.1,0.9,1.7l0,0
		C173.9,74.4,173.5,74.8,172.9,74.5z"/>
	<path class="st41" d="M168.3,59.7l-9.6-5.5c-0.5-0.3-0.9-1.1-0.9-1.7l0,0c0-0.7,0.4-1,0.9-0.7l9.6,5.5c0.5,0.3,0.9,1.1,0.9,1.7l0,0
		C169.2,59.7,168.8,60,168.3,59.7z"/>
	<path class="st42" d="M174.4,63.2l-2.7-1.6c-0.5-0.3-0.9-1.1-0.9-1.7l0,0c0-0.7,0.4-1,0.9-0.7l2.7,1.6c0.5,0.3,0.9,1.1,0.9,1.7l0,0
		C175.3,63.2,174.9,63.5,174.4,63.2z"/>
	<polygon class="st43" points="140.5,70.1 181,55.2 195.6,63.4 155.3,77.8 	"/>
	<polygon class="st43" points="140.9,66.8 177.7,53.9 169.5,49.7 140.9,59.9 	"/>
	<path class="st13" d="M167.9,97.1c0,1.5-1,2-2.3,1.3c-1.3-0.7-2.3-2.5-2.3-4c0-1.5,1-2,2.3-1.3C166.9,93.9,167.9,95.7,167.9,97.1z"
		/>
	<path class="st44" d="M90.9,85l0,1.5c0,0,0,4.6-4.4,2c-4.4-2.6-4-8.4-4-8.4S85.9,80,90.9,85z"/>
	<path class="st12" d="M86.3,88.7c5.8,3.4,5.8-2,5.8-2l0,0l-0.1-1.8c-6.3-6-10.5-5.9-10.5-5.9S80.6,85.3,86.3,88.7z M82.6,80.4
		c0,0,3.4,0,8.2,4.6l0,1.3c0,0,0,4-4.3,1.5C82.2,85.4,82.6,80.4,82.6,80.4z"/>
	<polygon class="st12" points="94.3,87.8 90.9,86 90.8,84 94.2,85.8 	"/>
	<path class="st12" d="M81.8,80.5l-0.6-0.3c-0.3-0.2-0.6-0.7-0.6-1.1l0,0c0-0.4,0.2-0.6,0.6-0.5l0.6,0.3c0.3,0.2,0.6,0.7,0.6,1.1
		l0,0C82.4,80.4,82.2,80.6,81.8,80.5z"/>
	<path class="st12" d="M104,92l-0.6-0.3c-0.3-0.2-0.6-0.7-0.6-1.1l0,0c0-0.4,0.2-0.6,0.6-0.5l0.6,0.3c0.3,0.2,0.6,0.7,0.6,1.1l0,0
		C104.6,92,104.4,92.2,104,92z"/>
	<path class="st44" d="M94.5,87l0.2,1.6c0,0,0.4,4.7,4.7,6.6c4.3,1.9,3.3-4.4,3.3-4.4S99.1,87,94.5,87z"/>
	<path class="st12" d="M103.6,90.3c0,0-4.4-4.5-10.5-5l0.1,1.8l0,0c0,0,0.6,5.7,6.3,8.3C105.3,98.1,103.6,90.3,103.6,90.3z
		 M99.4,94.6c-4.3-1.9-4.7-6.2-4.7-6.2L94.5,87c4.6,0.3,8.2,3.9,8.2,3.9S103.6,96.5,99.4,94.6z"/>
	<path class="st26" d="M95.4,89.5L95.4,89.5c-0.1-0.2-0.2-0.4-0.1-0.5l1.1-1.1c0.1-0.1,0.3,0,0.4,0.2v0c0.1,0.2,0.2,0.4,0.1,0.5
		l-1.1,1.1C95.8,89.7,95.6,89.7,95.4,89.5z"/>
	<path class="st26" d="M83.2,82.8L83.2,82.8c-0.1-0.2-0.2-0.4-0.1-0.5l1.1-1.1c0.1-0.1,0.3,0,0.4,0.2l0,0c0.1,0.2,0.2,0.4,0.1,0.5
		L83.6,83C83.5,83.1,83.3,83,83.2,82.8z"/>
	<path class="st17" d="M74.9,112.8l2.8-16l9.9,6.1l-2.3,14.5C85.2,119.7,74.5,118.2,74.9,112.8z"/>
	<path class="st17" d="M81.9,74.8c0,0-9.3-6.5-10.1,8.3c-0.6,10.3,5.4,19.5,13.8,24c5.3,2.8,12-0.1,12.6-5.2
		c1.7-7.4,2-14.4-0.2-20.5c0.7-6.2-3.8-4.2-11.3-5L81.9,74.8z"/>
	<path class="st45" d="M76.4,104.7c-0.7-0.8-1.4-1.5-2.3-2c-3.1-1.8-9.1-6.7-7.9-17.5c1.9-15.7,15.7-12.6,24.4-14
		c3.6-0.5,6.1-0.5,9.6,2.9c3.2,3.1-0.3,9.6-5.1,9.8c-1.9,0.1-1.3,5.2-1.8,6.9c-0.8,3.1-2.9,4.5-3.7,7.5c-0.8,2.8-5.3,6.8-8,7.2
		C78.5,106.1,77,105.4,76.4,104.7z"/>
	<path class="st12" d="M103.8,92.5l-13.4,0.6c-0.5,0-0.9-0.4-0.9-0.8l0,0c0-0.5,0.4-0.9,0.8-0.9l13.4-0.6c0.5,0,0.9,0.4,0.9,0.8v0
		C104.6,92,104.3,92.4,103.8,92.5z"/>
	<path class="st17" d="M92.3,95.4c0.1,2.5-1.3,4.6-3.1,4.7c-0.2,0-0.4,0-0.6-0.1c-1.5-0.3-2.8-2.1-2.8-4.4c-0.1-2.5,1.3-4.6,3.1-4.7
		C90.7,90.9,92.2,92.9,92.3,95.4z"/>
	<path class="st41" d="M92,119c-10.9-2.2-19.2,4.4-20.1-11.6h0c1.7-0.9,3.8-0.3,4.7,1.3c1.6,2.8,5.5,4.7,10,4.4
		c1.4-0.1,2.6,0.6,3.2,1.7L92,119z"/>
	<path class="st15" d="M181.3,172.7l-20.7-12c-0.3-0.1-0.3-0.5,0-0.7l28.4-16.4c0.1-0.1,0.3-0.1,0.4,0l20.7,12
		c0.3,0.1,0.3,0.5,0,0.7l-28.4,16.4C181.5,172.8,181.4,172.8,181.3,172.7z"/>
	<rect x="160.4" y="159.5" class="st15" width="0.7" height="1"/>
	<rect x="209.6" y="155.3" class="st46" width="1" height="0.7"/>
	<path class="st15" d="M181.3,172l-20.7-12c-0.3-0.1-0.3-0.5,0-0.7L189,143c0.1-0.1,0.3-0.1,0.4,0l20.7,12c0.3,0.1,0.3,0.5,0,0.7
		L181.7,172C181.5,172.1,181.4,172.1,181.3,172z"/>
	<path class="st15" d="M202,184.7l-20.7-12c-0.3-0.1-0.3-0.5,0-0.7l28.4-16.4c0.1-0.1,0.3-0.1,0.4,0l20.7,12c0.3,0.1,0.3,0.5,0,0.7
		l-28.4,16.4C202.3,184.7,202.1,184.7,202,184.7z"/>
	<rect x="181.3" y="171.7" class="st46" width="0.7" height="0.7"/>
	<rect x="230.1" y="167.2" class="st46" width="1" height="0.3"/>
	<path class="st15" d="M202,184l-20.7-12c-0.3-0.1-0.3-0.5,0-0.7l28.4-16.4c0.1-0.1,0.3-0.1,0.4,0l20.7,12c0.3,0.1,0.3,0.5,0,0.7
		L202.4,184C202.3,184,202.1,184,202,184z"/>
	<path class="st15" d="M167.8,162.1l13.5,8.7l8.2-6.5C189.5,164.2,173.6,157.8,167.8,162.1z"/>
	<linearGradient id="SVGID_5_" gradientUnits="userSpaceOnUse" x1="190.1456" y1="165.4706" x2="180.5824" y2="148.9067">
		<stop  offset="2.000000e-08" style="stop-color:#9FB0BF"/>
		<stop  offset="0.2542" style="stop-color:#A3B3C2"/>
		<stop  offset="0.4956" style="stop-color:#AEBDCB"/>
		<stop  offset="0.732" style="stop-color:#C1CEDB"/>
		<stop  offset="0.964" style="stop-color:#DCE6F0"/>
		<stop  offset="1" style="stop-color:#E1EAF4"/>
	</linearGradient>
	<path class="st47" d="M181.4,170.5c-1.2-4.4-9.3-6.2-18.6-10.7c-0.3-0.2-0.3-0.5,0.1-0.7l25.2-14.6c0.3-0.2,0.9-0.2,1.2,0
		c11.5,3.4,18.7,7,18.6,10.7L181.4,170.5z"/>
	
		<linearGradient id="SVGID_6_" gradientUnits="userSpaceOnUse" x1="154.5364" y1="178.5784" x2="144.2591" y2="160.7777" gradientTransform="matrix(0.8824 4.120000e-02 -6.790000e-02 1.0238 66.5597 -23.9337)">
		<stop  offset="2.000000e-08" style="stop-color:#9FB0BF"/>
		<stop  offset="2.195468e-02" style="stop-color:#A9B8C6"/>
		<stop  offset="9.211858e-02" style="stop-color:#C4CED7"/>
		<stop  offset="0.1727" style="stop-color:#DAE0E6"/>
		<stop  offset="0.2668" style="stop-color:#EBEEF1"/>
		<stop  offset="0.3832" style="stop-color:#F6F8F9"/>
		<stop  offset="0.5466" style="stop-color:#FDFDFE"/>
		<stop  offset="1" style="stop-color:#FFFFFF"/>
	</linearGradient>
	<path class="st48" d="M181.4,170.5c0.8-5.1-7.3-7.8-15.6-13c-0.3-0.2-0.2-0.5,0.1-0.7l24.4-14.5c0.3-0.2,0.8-0.2,1.1,0
		c10.4,4.2,16.9,8.8,16.5,12.9L181.4,170.5z"/>
	<path class="st49" d="M201.6,149.8l-8.9-5.7c-0.1-0.1-0.1-0.2,0-0.3l0,0c0.1-0.1,0.3-0.1,0.5,0l8.9,5.7c0.1,0.1,0.1,0.2,0,0.3l0,0
		C202,149.9,201.8,149.9,201.6,149.8z"/>
	<path class="st49" d="M198.7,151.7l-8.9-5.7c-0.1-0.1-0.1-0.2,0-0.3l0,0c0.1-0.1,0.3-0.1,0.5,0l8.9,5.7c0.1,0.1,0.1,0.2,0,0.3l0,0
		C199,151.8,198.8,151.8,198.7,151.7z"/>
	<path class="st49" d="M195.8,153.6l-8.9-5.7c-0.1-0.1-0.1-0.2,0-0.3l0,0c0.1-0.1,0.3-0.1,0.5,0l8.9,5.7c0.1,0.1,0.1,0.2,0,0.3l0,0
		C196.1,153.7,195.9,153.7,195.8,153.6z"/>
	<path class="st49" d="M192.9,155.5l-8.9-5.7c-0.1-0.1-0.1-0.2,0-0.3l0,0c0.1-0.1,0.3-0.1,0.5,0l8.9,5.7c0.1,0.1,0.1,0.2,0,0.3l0,0
		C193.2,155.6,193,155.6,192.9,155.5z"/>
	<path class="st49" d="M189.9,157.4l-8.9-5.7c-0.1-0.1-0.1-0.2,0-0.3v0c0.1-0.1,0.3-0.1,0.5,0l8.9,5.7c0.1,0.1,0.1,0.2,0,0.3l0,0
		C190.2,157.5,190,157.5,189.9,157.4z"/>
	<path class="st49" d="M186.9,160l-8.9-5.7c-0.1-0.1-0.1-0.2,0-0.3l0,0c0.1-0.1,0.3-0.1,0.5,0l8.9,5.7c0.1,0.1,0.1,0.2,0,0.3l0,0
		C187.2,160.1,187,160.1,186.9,160z"/>
	<path class="st49" d="M184,161.9l-8.9-5.7c-0.1-0.1-0.1-0.2,0-0.3l0,0c0.1-0.1,0.3-0.1,0.5,0l8.9,5.7c0.1,0.1,0.1,0.2,0,0.3l0,0
		C184.3,162,184.1,162,184,161.9z"/>
	<path class="st49" d="M181.1,163.8l-8.9-5.7c-0.1-0.1-0.1-0.2,0-0.3l0,0c0.1-0.1,0.3-0.1,0.5,0l8.9,5.7c0.1,0.1,0.1,0.2,0,0.3l0,0
		C181.4,163.9,181.2,163.9,181.1,163.8z"/>
	<path class="st15" d="M181.3,170.8l11,5.3C192.3,176.1,184.5,167.1,181.3,170.8z"/>
	<path class="st16" d="M181.4,170.5c0,0,2.5-0.9,4.6,0.8c2.1,1.7,15.2,11.6,15.2,11.6l26.7-15.2c0,0-14.2-13.8-20-12.3L181.4,170.5z
		"/>
	<path class="st49" d="M219.7,163.9l-8.8-5.9c-0.1-0.1-0.1-0.2,0.1-0.3l0,0c0.1-0.1,0.3-0.1,0.5,0l8.8,5.9c0.1,0.1,0.1,0.2-0.1,0.3
		l0,0C220,164,219.8,164,219.7,163.9z"/>
	<path class="st49" d="M216.7,165.7l-8.8-5.9c-0.1-0.1-0.1-0.2,0.1-0.3l0,0c0.1-0.1,0.3-0.1,0.5,0l8.8,5.9c0.1,0.1,0.1,0.2-0.1,0.3
		l0,0C217,165.8,216.8,165.8,216.7,165.7z"/>
	<path class="st49" d="M213.7,167.6l-8.8-5.9c-0.1-0.1-0.1-0.2,0.1-0.3l0,0c0.1-0.1,0.3-0.1,0.5,0l8.8,5.9c0.1,0.1,0.1,0.2-0.1,0.3
		l0,0C214,167.7,213.8,167.6,213.7,167.6z"/>
	<path class="st49" d="M210.7,169.4l-8.8-5.9c-0.1-0.1-0.1-0.2,0.1-0.3l0,0c0.1-0.1,0.3-0.1,0.5,0l8.8,5.9c0.1,0.1,0.1,0.2-0.1,0.3
		l0,0C211.1,169.5,210.8,169.5,210.7,169.4z"/>
	<path class="st49" d="M207.8,171.2l-8.8-5.9c-0.1-0.1-0.1-0.2,0.1-0.3l0,0c0.1-0.1,0.3-0.1,0.5,0l8.8,5.9c0.1,0.1,0.1,0.2-0.1,0.3
		v0C208.1,171.3,207.9,171.3,207.8,171.2z"/>
	<path class="st49" d="M204.7,173.8l-8.8-5.9c-0.1-0.1-0.1-0.2,0.1-0.3l0,0c0.1-0.1,0.3-0.1,0.5,0l8.8,5.9c0.1,0.1,0.1,0.2-0.1,0.3
		l0,0C205,173.9,204.8,173.9,204.7,173.8z"/>
	<path class="st49" d="M201.7,175.6l-8.8-5.9c-0.1-0.1-0.1-0.2,0.1-0.3l0,0c0.1-0.1,0.3-0.1,0.5,0l8.8,5.9c0.1,0.1,0.1,0.2-0.1,0.3
		l0,0C202,175.7,201.8,175.7,201.7,175.6z"/>
	<path class="st49" d="M198.8,177.4l-8.8-5.9c-0.1-0.1-0.1-0.2,0.1-0.3l0,0c0.1-0.1,0.3-0.1,0.5,0l8.8,5.9c0.1,0.1,0.1,0.2-0.1,0.3
		l0,0C199.1,177.5,198.9,177.5,198.8,177.4z"/>
	<path class="st18" d="M217.4,159.1c-3.1,2.7-11.4,9.2-15.8,12.6c-0.2,0.2-0.1,0.5,0.2,0.5l3.3-0.3c0.2,0,0.3,0.2,0.3,0.3l-0.7,2.3
		c-0.1,0.2,0.2,0.4,0.4,0.3c1.8-1.3,6.9-6.8,14.1-13.9c0.6-0.6,0.5-1.6-0.2-2l0,0C218.5,158.6,217.8,158.7,217.4,159.1z"/>
	<path class="st18" d="M251.8,67.9l-20-11.6c-0.8-0.5-1.5-0.5-2.1-0.1l0,0l-3.4,1.9c0,0,1.3,2,2.3,4.3v18.1c0,2.3,1.4,5,3.1,5.9
		l16.3,9.4c1.5,2.6,2.5,4.2,2.5,4.2l3.1-1.8v0c0.7-0.3,1-1.2,1-2.6V73.8C254.9,71.5,253.6,68.8,251.8,67.9z"/>
	<path class="st15" d="M248.5,100l-20.1-11.6c-1.7-1-3.1-3.7-3.1-5.9V60.6c0-2.3,1.4-3.3,3.1-2.4l20.1,11.6c1.7,1,3.1,3.7,3.1,5.9
		v21.9C251.6,100,250.2,101,248.5,100z"/>
	<path class="st50" d="M245.8,101.2l-20.1-11.6c-1.7-1-3.1-3.7-3.1-5.9V61.8c0-2.3,1.4-3.3,3.1-2.4L245.8,71c1.7,1,3.1,3.7,3.1,5.9
		v21.9C248.9,101.1,247.5,102.2,245.8,101.2z"/>
	<polygon class="st16" points="232.9,83.2 227.6,74.1 233.4,70.8 234.5,72.7 230.7,74.9 234.9,82.1 	"/>
	<polygon class="st16" points="243.4,88.8 242.3,86.9 246.1,84.7 241.9,77.4 243.8,76.3 249.2,85.6 	"/>
	<rect x="231" y="79" transform="matrix(0.2613 -0.9652 0.9652 0.2613 98.9792 289.5034)" class="st16" width="15.2" height="2.3"/>
</g>
</svg>
